<svg class="animated" id="freepik_stories-palm-tree" xmlns="http://www.w3.org/2000/svg" viewBox="0 0 500 500" version="1.1" xmlns:xlink="http://www.w3.org/1999/xlink" xmlns:svgjs="http://svgjs.com/svgjs"><style>svg#freepik_stories-palm-tree:not(.animated) .animable {opacity: 0;}svg#freepik_stories-palm-tree.animated #freepik--trees-1--inject-2 {animation: 1s 1 forwards cubic-bezier(.36,-0.01,.5,1.38) fadeIn;animation-delay: 0s;}            @keyframes fadeIn {                0% {                    opacity: 0;                }                100% {                    opacity: 1;                }            }        .animator-hidden { display: none; }</style><g id="freepik--background-complete--inject-2" style="transform-origin: 251.865px 254.563px 0px;" class="animable animator-hidden"><path d="M412.68,72.67A31.18,31.18,0,0,0,409,64.94a10.65,10.65,0,0,0-7-4.57c-2.85-.35-6,1.19-6.94,3.91-.41-6.12-1.27-12.4-4.34-17.72s-8.78-9.49-14.9-9.11C370,37.8,365,42.09,362.3,47.18s-3.69,10.93-4.6,16.64c-2.18-2.68-6.81-1.84-9.09.77s-2.86,6.24-3.35,9.67h68.89Z" style="fill: rgb(245, 245, 245); transform-origin: 379.705px 55.843px 0px;" id="elqemhqz8gmo" class="animable"></path><path d="M35.56,471.7s74.09-90.21,104-101.69c58.18-22.33,112.74,43.42,158.55,41.93s56-13.23,88.64-5.86C421.83,414,475,471.7,475,471.7Z" style="fill: rgb(245, 245, 245); transform-origin: 255.28px 418.539px 0px;" id="el7471saj8ryy" class="animable"></path><path d="M275.3,333.86a31,31,0,0,0-3.7-7.67,10.55,10.55,0,0,0-7-4.53c-2.83-.35-6,1.18-6.89,3.87-.4-6.07-1.26-12.31-4.3-17.58s-8.72-9.42-14.8-9.05c-5.73.35-10.64,4.61-13.36,9.66s-3.67,10.85-4.56,16.52c-2.17-2.67-6.76-1.83-9,.76s-2.84,6.2-3.32,9.6h68.38Z" style="fill: rgb(235, 235, 235); transform-origin: 242.56px 317.159px 0px;" id="elihk1u9k3ld" class="animable"></path><path d="M353.33,299.19a31.41,31.41,0,0,0-3.7-7.67,10.57,10.57,0,0,0-7-4.53c-2.83-.35-6,1.18-6.88,3.87-.41-6.07-1.27-12.31-4.31-17.58s-8.72-9.42-14.8-9c-5.73.35-10.63,4.61-13.36,9.66s-3.66,10.85-4.56,16.52c-2.17-2.66-6.76-1.83-9,.76s-2.84,6.2-3.32,9.6h68.38Z" style="fill: rgb(245, 245, 245); transform-origin: 320.59px 282.535px 0px;" id="eltaxg1xr0kt" class="animable"></path><path d="M101.09,210.36a34.2,34.2,0,0,0-4-8.3,11.52,11.52,0,0,0-7.53-4.9c-3.06-.37-6.45,1.28-7.44,4.19-.44-6.56-1.37-13.3-4.66-19s-9.42-10.18-16-9.78C55.27,173,50,177.55,47,183s-4,11.73-4.92,17.86c-2.35-2.89-7.31-2-9.76.82s-3.07,6.7-3.59,10.38h73.91Z" style="fill: rgb(235, 235, 235); transform-origin: 65.685px 192.303px 0px;" id="elwg29xdsmsmp" class="animable"></path><path d="M472.9,145.66a26.52,26.52,0,0,0-3.14-6.52,9,9,0,0,0-5.92-3.86,5.52,5.52,0,0,0-5.86,3.3c-.34-5.17-1.07-10.46-3.66-15s-7.41-8-12.57-7.69c-4.88.3-9.05,3.92-11.37,8.21s-3.11,9.22-3.87,14c-1.85-2.27-5.75-1.56-7.67.64s-2.42,5.27-2.83,8.16h58.13Z" style="fill: rgb(235, 235, 235); transform-origin: 445.075px 131.385px 0px;" id="elaiiz6nqljha" class="animable"></path><path d="M152.1,144.9a20.48,20.48,0,0,0-2.38-4.94,6.85,6.85,0,0,0-4.49-2.92,4.17,4.17,0,0,0-4.43,2.5c-.26-3.91-.81-7.93-2.77-11.32s-5.61-6.06-9.52-5.82c-3.69.22-6.85,3-8.6,6.21s-2.36,7-2.93,10.63c-1.4-1.71-4.35-1.17-5.81.49s-1.83,4-2.14,6.18h44Z" style="fill: rgb(235, 235, 235); transform-origin: 131.03px 134.147px 0px;" id="eltz79j26625" class="animable"></path><path d="M462.13,246.81a16.22,16.22,0,0,0-1.92-4,5.54,5.54,0,0,0-3.63-2.37,3.38,3.38,0,0,0-3.59,2c-.21-3.16-.66-6.41-2.25-9.16s-4.54-4.91-7.71-4.72c-3,.19-5.54,2.41-7,5a26.69,26.69,0,0,0-2.38,8.61c-1.13-1.39-3.52-.95-4.7.39s-1.48,3.23-1.73,5h35.63Z" style="fill: rgb(235, 235, 235); transform-origin: 445.035px 238.054px 0px;" id="elmt52nps3fg" class="animable"></path><path d="M273.61,129.24a16.24,16.24,0,0,0-1.93-4,5.48,5.48,0,0,0-3.63-2.36,3.36,3.36,0,0,0-3.58,2c-.22-3.17-.66-6.42-2.25-9.17s-4.54-4.9-7.71-4.71c-3,.18-5.54,2.4-7,5a26.83,26.83,0,0,0-2.38,8.61c-1.13-1.39-3.52-1-4.7.4s-1.48,3.23-1.73,5h35.63Z" style="fill: rgb(235, 235, 235); transform-origin: 256.515px 120.499px 0px;" id="elwy5lo6gryr8" class="animable"></path><path d="M89.05,432.16c-.45.15-9.84,12.14-9.49,24.82s1.61,14.22,1.61,14.22l2.47.31s5.19-14.11,6.17-23.44A48.5,48.5,0,0,0,89.05,432.16Z" style="fill: rgb(235, 235, 235); transform-origin: 84.8467px 451.835px 0px;" id="elfdpfjgive36" class="animable"></path><path d="M80.24,428c-.41.23-7.51,14.5-4.87,28.2s4.18,15.19,4.18,15.19h2.5s2.56-16,1.84-26.24A58.61,58.61,0,0,0,80.24,428Z" style="fill: rgb(224, 224, 224); transform-origin: 79.4004px 449.695px 0px;" id="el6tzt4o0ft7o" class="animable"></path><path d="M86.51,433.22s1.67,18.3.69,23.13-5.15,15.08-5.15,15.08h2a169.07,169.07,0,0,0,9.86-16.34C97.5,447.84,91.1,436.79,86.51,433.22Z" style="fill: rgb(224, 224, 224); transform-origin: 88.505px 452.325px 0px;" id="elwwxtqqawjh" class="animable"></path><path d="M66.74,429.65c-.28.46-7.79,16.11-3.2,23.71s12.39,18.07,12.39,18.07h3.62S68.41,453.7,68.41,447.84,66.74,429.65,66.74,429.65Z" style="fill: rgb(235, 235, 235); transform-origin: 70.8039px 450.54px 0px;" id="elgtzdlabxpdt" class="animable"></path><path d="M96.7,429.65c.28.46,7.79,16.11,3.2,23.71s-12.39,18.07-12.39,18.07H83.89S95,453.7,95,447.84,96.7,429.65,96.7,429.65Z" style="fill: rgb(235, 235, 235); transform-origin: 92.6361px 450.54px 0px;" id="elydc8zz8hiu" class="animable"></path><path d="M71.89,429.65s-2.15,12.52-1.09,21.27C72,460.46,79,471,79,471l3.06-4.87-3.34-19.22S76.11,435.26,71.89,429.65Z" style="fill: rgb(224, 224, 224); transform-origin: 76.2831px 450.325px 0px;" id="elkag51fz8ktp" class="animable"></path><path d="M55.47,439.2c-.14.35-.42,13.93,4.45,19.45s16,12.78,16,12.78l4-.05s-15.74-17.21-18.53-21.65S55.47,439.2,55.47,439.2Z" style="fill: rgb(224, 224, 224); transform-origin: 67.6657px 455.315px 0px;" id="elvtlm7qt6l8o" class="animable"></path><path d="M104.6,439.2S99,453.7,96.11,456.7s-12.8,14.73-12.8,14.73H88.5s10.25-12.55,13.59-16.11S104.6,439.2,104.6,439.2Z" style="fill: rgb(224, 224, 224); transform-origin: 94.0007px 455.315px 0px;" id="elzcb44oo9p7" class="animable"></path><path d="M274.65,418.06c-.62.22-13.36,16.5-12.89,33.72S264,471.09,264,471.09l3.36.42s7-19.16,8.37-31.83A65.7,65.7,0,0,0,274.65,418.06Z" style="fill: rgb(235, 235, 235); transform-origin: 268.958px 444.785px 0px;" id="elw26pvdbcatq" class="animable"></path><path d="M262.69,412.48c-.57.31-10.21,19.69-6.61,38.29s5.67,20.63,5.67,20.63h3.4s3.47-21.73,2.49-35.64A79.66,79.66,0,0,0,262.69,412.48Z" style="fill: rgb(224, 224, 224); transform-origin: 261.546px 441.94px 0px;" id="ellgzxw8587vg" class="animable"></path><path d="M271.2,419.51s2.26,24.85.94,31.41-7,20.48-7,20.48h2.67s8.48-12.35,13.39-22.19S277.43,424.35,271.2,419.51Z" style="fill: rgb(224, 224, 224); transform-origin: 273.892px 445.455px 0px;" id="elxzd6cfvubg" class="animable"></path><path d="M244.36,414.66c-.38.63-10.59,21.89-4.35,32.2s16.82,24.54,16.82,24.54h4.92s-15.12-24.07-15.12-32S244.36,414.66,244.36,414.66Z" style="fill: rgb(235, 235, 235); transform-origin: 249.872px 443.03px 0px;" id="elg2jew2qicy" class="animable"></path><path d="M285,414.66c.38.63,10.58,21.89,4.34,32.2s-16.82,24.54-16.82,24.54h-4.91s15.12-24.07,15.12-32S285,414.66,285,414.66Z" style="fill: rgb(235, 235, 235); transform-origin: 279.483px 443.03px 0px;" id="elsnzknf4t24r" class="animable"></path><path d="M251.35,414.66s-2.92,17-1.48,28.89c1.58,13,11.12,27.27,11.12,27.27l4.16-6.61-4.54-26.1S257.08,422.28,251.35,414.66Z" style="fill: rgb(224, 224, 224); transform-origin: 257.311px 442.74px 0px;" id="elhkbuv3o3x3a" class="animable"></path><path d="M229.05,427.64c-.19.47-.57,18.91,6,26.41s21.73,17.35,21.73,17.35l5.51-.07S241,448,237.18,441.94,229.05,427.64,229.05,427.64Z" style="fill: rgb(224, 224, 224); transform-origin: 245.63px 449.52px 0px;" id="elu6dtb02lzvi" class="animable"></path><path d="M295.77,427.64s-7.56,19.69-11.53,23.75-17.39,20-17.39,20h7s13.93-17,18.47-21.88S295.77,427.64,295.77,427.64Z" style="fill: rgb(224, 224, 224); transform-origin: 281.367px 449.515px 0px;" id="elkj9r7jonrsa" class="animable"></path><path d="M430.32,424.43c-.54.19-11.77,14.53-11.35,29.7s1.92,17,1.92,17l3,.37s6.19-16.88,7.37-28A57.8,57.8,0,0,0,430.32,424.43Z" style="fill: rgb(235, 235, 235); transform-origin: 425.306px 447.965px 0px;" id="el781y5lk0uxc" class="animable"></path><path d="M419.79,419.51c-.5.27-9,17.35-5.83,33.73s5,18.17,5,18.17h3s3.06-19.13,2.2-31.39A70.52,70.52,0,0,0,419.79,419.51Z" style="fill: rgb(224, 224, 224); transform-origin: 418.783px 445.46px 0px;" id="elmk6rigfzp6j" class="animable"></path><path d="M427.28,425.7s2,21.89.83,27.68-6.16,18-6.16,18h2.35a198.82,198.82,0,0,0,11.8-19.55C440.43,443.19,432.77,430,427.28,425.7Z" style="fill: rgb(224, 224, 224); transform-origin: 429.662px 448.54px 0px;" id="el1d1avzroum8" class="animable"></path><path d="M403.64,421.44c-.33.55-9.32,19.27-3.83,28.36s14.82,21.61,14.82,21.61H419s-13.32-21.2-13.32-28.22S403.64,421.44,403.64,421.44Z" style="fill: rgb(235, 235, 235); transform-origin: 408.519px 446.425px 0px;" id="elrrguqhu2cgh" class="animable"></path><path d="M439.47,421.44c.34.55,9.33,19.27,3.83,28.36s-14.82,21.61-14.82,21.61h-4.32s13.31-21.2,13.31-28.22S439.47,421.44,439.47,421.44Z" style="fill: rgb(235, 235, 235); transform-origin: 434.619px 446.425px 0px;" id="el6ilpp6obnn" class="animable"></path><path d="M409.8,421.44s-2.58,15-1.3,25.44c1.38,11.42,9.79,24,9.79,24l3.66-5.83-4-23S414.84,428.15,409.8,421.44Z" style="fill: rgb(224, 224, 224); transform-origin: 415.047px 446.16px 0px;" id="elbpzs4cru7op" class="animable"></path><path d="M390.15,432.86c-.16.42-.5,16.66,5.33,23.27s19.15,15.28,19.15,15.28l4.85-.06s-18.84-20.59-22.17-25.89S390.15,432.86,390.15,432.86Z" style="fill: rgb(224, 224, 224); transform-origin: 404.781px 452.135px 0px;" id="ely4v19s88q2c" class="animable"></path><path d="M448.92,432.86s-6.66,17.35-10.15,20.93-15.32,17.62-15.32,17.62h6.21s12.27-15,16.27-19.27S448.92,432.86,448.92,432.86Z" style="fill: rgb(224, 224, 224); transform-origin: 436.242px 452.135px 0px;" id="elh1iwwsrwa7c" class="animable"></path></g><g id="freepik--Floor--inject-2" style="transform-origin: 253.165px 471.7px 0px;" class="animable"><path d="M477.68,471.7c0,.15-100.52.26-224.5.26s-224.53-.11-224.53-.26,100.51-.26,224.53-.26S477.68,471.56,477.68,471.7Z" style="fill: rgb(38, 50, 56); transform-origin: 253.165px 471.7px 0px;" id="elgshz5o1qhom" class="animable"></path></g><g id="freepik--Birds--inject-2" style="transform-origin: 250.361px 67.645px 0px;" class="animable animator-hidden"><path d="M226.07,100.24a5.49,5.49,0,0,1-1.17-.25c-.71-.19-1.68-.49-2.73-.85s-2-.75-2.68-1a4.36,4.36,0,0,1-1.06-.53,6.48,6.48,0,0,1,1.13.35l2.7,1,2.7.93A5.25,5.25,0,0,1,226.07,100.24Z" style="fill: rgb(38, 50, 56); transform-origin: 222.25px 98.925px 0px;" id="elf6u2q2vdbuu" class="animable"></path><path d="M227,99.24a4.46,4.46,0,0,1-1.17-.24c-.7-.2-1.67-.49-2.73-.86s-2-.74-2.68-1a5.19,5.19,0,0,1-1.06-.53,4.82,4.82,0,0,1,1.14.35l2.69.95,2.7.93A5.65,5.65,0,0,1,227,99.24Z" style="fill: rgb(38, 50, 56); transform-origin: 223.18px 97.925px 0px;" id="el6j32bbkyjj9" class="animable"></path><path d="M197,89.81s1.76-1.85,3.19-2.1,13.12,1.68,13.12,1.68l18.91,7.14s-1.17,1.85-4.28,1.26-6.56-1.59-6.56-1.59a12.38,12.38,0,0,1-6.22,1.71c-3.53,0-8-.87-10.6-3.65s-5.78-1-6.42-3.31A1.47,1.47,0,0,0,197,89.81Z" style="fill: rgb(224, 224, 224); transform-origin: 214.61px 92.7988px 0px;" id="elqx1bng0f5vg" class="animable"></path><path d="M243.3,69a37.36,37.36,0,0,1-3.93,4.67,2.49,2.49,0,0,1-1.58.93,24,24,0,0,0,4.26-8.22c-.61.91-1.25,1.8-1.92,2.66a21.76,21.76,0,0,1-1.61,1.85,28,28,0,0,1-5.23,3.78A33.11,33.11,0,0,1,229,77.13a65.28,65.28,0,0,1-6.55,2.2c-1,.34-2.92.77-3.74,1.45a6.78,6.78,0,0,0-1,1.23,28.47,28.47,0,0,1-9.94,8.46l6.1,3a10.9,10.9,0,0,0,7.71-1.88,18.1,18.1,0,0,0,5.36-6,4.24,4.24,0,0,1,1.21-1.53,6.2,6.2,0,0,1,1.53-.55A5.7,5.7,0,0,0,232,82.09a2.83,2.83,0,0,1-1.86.06,50.7,50.7,0,0,0,5.64-2.51,11.52,11.52,0,0,0,4.47-3.5,5.48,5.48,0,0,1-2.49,1.15A17.42,17.42,0,0,0,243.3,69Z" style="fill: rgb(224, 224, 224); transform-origin: 225.535px 79.9735px 0px;" id="el5pxtn10prht" class="animable"></path><path d="M200.11,89.21a.37.37,0,0,0-.39,0,.46.46,0,0,0-.19.34.62.62,0,0,0,.38.64.61.61,0,0,0,.7-.25.58.58,0,0,0-.16-.72,1.08,1.08,0,0,0-.51-.14" style="fill: rgb(38, 50, 56); transform-origin: 200.1px 89.6498px 0px;" id="elg10jazhtd9b" class="animable"></path><path d="M197.53,89.32a4.06,4.06,0,0,0-2.63.66c-.88.82-1.19,1.66-1.06,1.74s.39-.46,1.77-.57a24.9,24.9,0,0,1,2.72,0Z" style="fill: #9E6E69; transform-origin: 196.071px 90.5149px 0px;" id="eld61qz8ksmvc" class="animable"></path><path d="M211.54,87.27q-2.47-3.81-5-7.62a14.17,14.17,0,0,1-1.51-2.75c-.75-2.06-.5-4.39-1.26-6.45-.26.47-.52.93-.79,1.39a14.94,14.94,0,0,0-.56-4c-.3.53-.59,1.07-.88,1.6a14.29,14.29,0,0,0-.84-5.54A3.5,3.5,0,0,0,199.31,66a36.42,36.42,0,0,0-.82-5.07c-2.66,3.54-3.23,8.19-3.33,12.61a9.28,9.28,0,0,0,.2,2.58,8.53,8.53,0,0,0,1.27,2.54c2.29,3.4,5.24,6.43,6.7,10.26l9.81,2.21C212.76,90.75,211.75,87.58,211.54,87.27Z" style="fill: rgb(224, 224, 224); transform-origin: 204.141px 76.03px 0px;" id="eldvof6olxq9" class="animable"></path><path d="M213.24,91.11l-.1,0S213.22,91.14,213.24,91.11Z" style="fill: rgb(224, 224, 224); transform-origin: 213.19px 91.1167px 0px;" id="el9l17pkvofm" class="animable"></path><path d="M226.86,85.59a4.24,4.24,0,0,1,1.21-1.53,6.2,6.2,0,0,1,1.53-.55A5.7,5.7,0,0,0,232,82.09a2.83,2.83,0,0,1-1.86.06,50.7,50.7,0,0,0,5.64-2.51,11.52,11.52,0,0,0,4.47-3.5,5.48,5.48,0,0,1-2.49,1.15A17.42,17.42,0,0,0,243.3,69a37.36,37.36,0,0,1-3.93,4.67,2.49,2.49,0,0,1-1.58.93,24,24,0,0,0,4.26-8.22c-.61.91-1.25,1.8-1.92,2.66a21.76,21.76,0,0,1-1.61,1.85,28,28,0,0,1-5.23,3.78c-1.42.86-2.84,1.73-4.33,2.47L235.34,76l-3.83,2.74,3.57-.6s-6.36,2.94-7.78,4.89a5.18,5.18,0,0,0-1.12,3.66Z" style="fill: rgb(38, 50, 56); transform-origin: 234.731px 76.535px 0px;" id="elxaz5527jkq" class="animable"></path><path d="M205.07,76.9c-.75-2.06-.5-4.39-1.26-6.45-.26.47-.52.93-.79,1.39a14.94,14.94,0,0,0-.56-4c-.3.53-.59,1.07-.88,1.6a14.29,14.29,0,0,0-.84-5.54A3.5,3.5,0,0,0,199.31,66a36.42,36.42,0,0,0-.82-5.07c-2.66,3.54-3.23,8.19-3.33,12.61a9.28,9.28,0,0,0,.2,2.58l1.21-3.35s1.39-4.41,2.13-2.33S201.07,76,201.07,76l.33-3.18s1,3.1,2,3.72A2.12,2.12,0,0,0,205.07,76.9Z" style="fill: rgb(38, 50, 56); transform-origin: 200.106px 68.9366px 0px;" id="el4018hypq0te" class="animable"></path><path d="M218.26,81.19a0,0,0,0,0,0,0s0,0,0,0a1.59,1.59,0,0,1-.11.16c-.09.13-.25.32-.44.56-.4.48-1,1.17-1.73,2s-1.64,1.82-2.68,2.86c-.53.53-1.08,1.07-1.71,1.59a5.21,5.21,0,0,1-1,.71,1.82,1.82,0,0,1-.69,0c-.21,0-.42,0-.63-.06-3.39-.41-6.42-1-8.63-1.26a2.26,2.26,0,0,0-1.39.3,7.35,7.35,0,0,0-.94.61c-.5.38-.74.62-.76.61s.05-.08.16-.2a5.75,5.75,0,0,1,.53-.49,6.11,6.11,0,0,1,.93-.66,2.46,2.46,0,0,1,1.49-.37c2.23.23,5.26.78,8.64,1.18.21,0,.41,0,.62.06a2.08,2.08,0,0,0,.56,0,4.8,4.8,0,0,0,1-.67c.61-.51,1.17-1,1.7-1.56,1-1,2-2,2.71-2.81l1.79-1.94.49-.53.13-.14s0,0,0,0Z" style="fill: rgb(38, 50, 56); transform-origin: 207.923px 85.2052px 0px;" id="el8xfqpqf8hn" class="animable"></path><path d="M231.57,78.46a.78.78,0,0,1-.14.18c-.09.11-.25.25-.45.44a8.63,8.63,0,0,1-2,1.22,19,19,0,0,1-3.25,1.09,16.05,16.05,0,0,0-1.91.59,6.16,6.16,0,0,0-1.81,1.09,22,22,0,0,0-2.69,3.15A15.07,15.07,0,0,1,217,88.71,13.74,13.74,0,0,1,215.1,90c-.24.14-.43.23-.56.3l-.2.08a7.63,7.63,0,0,1,.7-.47,18.12,18.12,0,0,0,1.83-1.38,16.23,16.23,0,0,0,2.29-2.49,20.45,20.45,0,0,1,2.71-3.21,6.58,6.58,0,0,1,1.89-1.14,14.47,14.47,0,0,1,1.94-.57,20.72,20.72,0,0,0,3.24-1,9.38,9.38,0,0,0,2-1.13C231.34,78.66,231.55,78.44,231.57,78.46Z" style="fill: rgb(38, 50, 56); transform-origin: 222.955px 84.4194px 0px;" id="elulro2ocopf" class="animable"></path><path d="M212.84,95.61a1.53,1.53,0,0,1-1.23-.13c-.65-.29-1-.79-.92-.83s.45.32,1,.57S212.84,95.53,212.84,95.61Z" style="fill: rgb(38, 50, 56); transform-origin: 211.759px 95.1651px 0px;" id="eljm0817y33sj" class="animable"></path><path d="M215.52,95.93a4.2,4.2,0,0,1-3.79-1.37c.05-.07.76.53,1.81.91S215.52,95.84,215.52,95.93Z" style="fill: rgb(38, 50, 56); transform-origin: 213.625px 95.2669px 0px;" id="elmpri5jbavbr" class="animable"></path><path d="M277,64.42a4.83,4.83,0,0,0-1.36.08,3.23,3.23,0,0,0-1.81,1.31,2,2,0,0,0,.69,0,18.21,18.21,0,0,1,2.76-.11,1.64,1.64,0,0,0-.28-1.3" style="fill: #9E6E69; transform-origin: 275.572px 65.12px 0px;" id="elvcnsl0m50o" class="animable"></path><path d="M292.38,68.14a54.35,54.35,0,0,1-9.31-2.3c-2.06,1.94-3.41,4.61-5.74,6.22a33.65,33.65,0,0,0-3.25,2,10.51,10.51,0,0,0-2.6,4.57,120.1,120.1,0,0,0-4,13.91l3.17-4.17-.11,2.51,4.37-7.08.43,2.28,10-8.84a51.31,51.31,0,0,0,5.13-5.35Z" style="fill: rgb(224, 224, 224); transform-origin: 279.93px 79.19px 0px;" id="el81hfmq0ec5l" class="animable"></path><path d="M283.84,63.32A21,21,0,0,0,286.78,58c1.31-3.38,1.7-10.37,5.6-13.21S306,35.05,306,35.05l-4,5.68,4.91-3.93a18.44,18.44,0,0,1-4.14,5.56l3.95-1.85s-.49,4.26-2.28,4.55a9.55,9.55,0,0,0-1.38,1.6l.44,1s-4.7,10-5.94,12-4.43,5.94-4.43,5.94Z" style="fill: rgb(224, 224, 224); transform-origin: 295.375px 50.325px 0px;" id="eleq8srou6z0n" class="animable"></path><path d="M276.85,64.73c0-.14.22-1.89,3.07-2a15.08,15.08,0,0,1,4.14.28s8.15,2.17,9.31,2.81,9.43-1.32,9.43-1.32,3.74,6.57-1.16,10.87S294,78.11,294,78.11s-.42-5.14-2.52-6.44c0,0-3.64,0-5.37-.89s-4.95-3.87-5.6-4.3-2.52-.16-3.18-.64A1,1,0,0,1,276.85,64.73Z" style="fill: rgb(224, 224, 224); transform-origin: 290.493px 70.5392px 0px;" id="elu19nd82updn" class="animable"></path><path d="M279.29,64.31a.57.57,0,0,1-.58.57.56.56,0,0,1-.57-.57.57.57,0,0,1,.57-.58A.58.58,0,0,1,279.29,64.31Z" style="fill: rgb(38, 50, 56); transform-origin: 278.715px 64.305px 0px;" id="elwoeo66nw4kl" class="animable"></path><path d="M303.45,47.69l-.44-1a9.55,9.55,0,0,1,1.38-1.6c1.79-.29,2.28-4.55,2.28-4.55l-3.95,1.85a18.44,18.44,0,0,0,4.14-5.56L302,40.73l4-5.68s-9.71,6.88-13.61,9.71l6.26-2-1.17,3,4.94-2.12a3.51,3.51,0,0,0-.48,3C302.48,48,303.45,47.69,303.45,47.69Z" style="fill: rgb(38, 50, 56); transform-origin: 299.625px 41.3852px 0px;" id="ela46i5jdb94r" class="animable"></path><path d="M275.32,86.13l-.43-2.28-4.37,7.08.11-2.51-3.17,4.17a120.1,120.1,0,0,1,4-13.91l-.09,4.22,2.44-1.78v3.07l2.13-2Z" style="fill: rgb(38, 50, 56); transform-origin: 271.7px 85.635px 0px;" id="eljl73vempj" class="animable"></path><path d="M298.44,73.44s-.32-.2-.86-.44-1.35-.45-2.2-.85a8.24,8.24,0,0,1-2.78-1.88c0-.06,1.23.87,2.89,1.63.83.38,1.63.62,2.17.93S298.47,73.42,298.44,73.44Z" style="fill: rgb(38, 50, 56); transform-origin: 295.521px 71.8536px 0px;" id="el3mj2257uqwz" class="animable"></path><path d="M299.52,71.65a10.24,10.24,0,0,1-3.15-.8,9.9,9.9,0,0,1-2.87-1.54c0-.07,1.31.64,3,1.28S299.54,71.56,299.52,71.65Z" style="fill: rgb(38, 50, 56); transform-origin: 296.51px 70.4776px 0px;" id="elzac9cqixcae" class="animable"></path><path d="M291.83,71.38a1.83,1.83,0,0,1-.45.19,11.78,11.78,0,0,1-1.27.34,5.66,5.66,0,0,1-2,.09,6,6,0,0,1-2.23-.9,18.19,18.19,0,0,1-3.45-2.64c-.4-.39-.7-.72-.9-.95s-.3-.38-.28-.4.49.48,1.32,1.21a21.92,21.92,0,0,0,3.45,2.54,6,6,0,0,0,2.13.89,6.26,6.26,0,0,0,1.9,0C291.16,71.54,291.82,71.33,291.83,71.38Z" style="fill: rgb(38, 50, 56); transform-origin: 286.539px 69.5796px 0px;" id="elkike9jgjfxf" class="animable"></path><path d="M298.15,44.19a4.51,4.51,0,0,1-.6.67c-.43.45-1,1-1.7,1.75s-1.6,1.6-2.53,2.57a3.66,3.66,0,0,0-1,1.79,8.91,8.91,0,0,0-.05,2.26,15.85,15.85,0,0,1-.35,4.43A10.49,10.49,0,0,1,290.58,61,8.62,8.62,0,0,1,289,62.91a6.1,6.1,0,0,1-.53.41c-.12.09-.19.13-.2.12a10.33,10.33,0,0,0,2.14-2.51,10.7,10.7,0,0,0,1.29-3.32,16.19,16.19,0,0,0,.32-4.37,9.45,9.45,0,0,1,.06-2.32A3.85,3.85,0,0,1,293.13,49c1-1,1.85-1.82,2.58-2.54l1.77-1.69A7,7,0,0,1,298.15,44.19Z" style="fill: rgb(38, 50, 56); transform-origin: 293.21px 53.8157px 0px;" id="el5ja82v6x75s" class="animable"></path><path d="M302.75,49a1.63,1.63,0,0,1-.35.28,11.73,11.73,0,0,1-1,.65,19.59,19.59,0,0,1-7.64,2.47c-.52,0-.93.07-1.22.07a1.23,1.23,0,0,1-.45,0s.63-.09,1.64-.25a25.6,25.6,0,0,0,3.89-.9,26.09,26.09,0,0,0,3.68-1.54C302.19,49.27,302.73,48.94,302.75,49Z" style="fill: rgb(38, 50, 56); transform-origin: 297.42px 50.7419px 0px;" id="elzed0twraome" class="animable"></path><path d="M303,45s0,.16-.24.41a3.8,3.8,0,0,1-1,.84,14.12,14.12,0,0,1-1.7.85c-.65.29-1.37.59-2.14.89-1.52.61-2.93,1.1-3.95,1.43a12.32,12.32,0,0,1-1.67.5,10.31,10.31,0,0,1,1.6-.68l3.92-1.51,2.14-.86a17.62,17.62,0,0,0,1.7-.79A5.1,5.1,0,0,0,303,45Z" style="fill: rgb(38, 50, 56); transform-origin: 297.65px 47.46px 0px;" id="elypvgf5i7zbf" class="animable"></path><path d="M299.29,54.12s-.25.37-.89.63a19.1,19.1,0,0,1-2.53.67,12.17,12.17,0,0,1-2.59.42,1.66,1.66,0,0,1-1.06-.26,8,8,0,0,0,1,.06,17,17,0,0,0,2.54-.49c1-.23,1.9-.38,2.52-.59A9.24,9.24,0,0,0,299.29,54.12Z" style="fill: rgb(38, 50, 56); transform-origin: 295.755px 54.9837px 0px;" id="elk93x2t07ig9" class="animable"></path><path d="M272.88,82.32a3.2,3.2,0,0,1,.19-.66,7.89,7.89,0,0,1,.87-1.65,8.29,8.29,0,0,1,1.92-2,15.83,15.83,0,0,1,3-1.61,16.25,16.25,0,0,0,2.94-1.58,11.42,11.42,0,0,0,2-1.83,23.26,23.26,0,0,0,1.47-2,2.5,2.5,0,0,1-.28.62,9.66,9.66,0,0,1-1,1.55,10.94,10.94,0,0,1-2,1.91,15.21,15.21,0,0,1-3,1.62A16.34,16.34,0,0,0,276,78.22a8.38,8.38,0,0,0-1.91,1.9A13.65,13.65,0,0,0,272.88,82.32Z" style="fill: rgb(38, 50, 56); transform-origin: 279.075px 76.655px 0px;" id="elcy12dx3r2dv" class="animable"></path><path d="M277.22,83.48a28.41,28.41,0,0,0,.41-2.9,24,24,0,0,0-.2-2.92,6.12,6.12,0,0,1,.48,2.93A6.26,6.26,0,0,1,277.22,83.48Z" style="fill: rgb(38, 50, 56); transform-origin: 277.575px 80.57px 0px;" id="el9gephkrigdm" class="animable"></path><path d="M280.56,80.76a21.16,21.16,0,0,1-.11-2.13,20.32,20.32,0,0,1-.18-2.13,5.12,5.12,0,0,1,.45,2.11A5.21,5.21,0,0,1,280.56,80.76Z" style="fill: rgb(38, 50, 56); transform-origin: 280.518px 78.63px 0px;" id="el1ljp2rt8gf4" class="animable"></path><path d="M283.35,78.51a18.68,18.68,0,0,1-.4-2.11,16.21,16.21,0,0,1-.43-2.1,5.56,5.56,0,0,1,.7,2A5.48,5.48,0,0,1,283.35,78.51Z" style="fill: rgb(38, 50, 56); transform-origin: 282.964px 76.405px 0px;" id="el6rfccsi0v77" class="animable"></path><path d="M286.46,73.84c0,.06-.4-.17-.79-.51s-.66-.67-.61-.73.41.18.8.52S286.51,73.79,286.46,73.84Z" style="fill: rgb(38, 50, 56); transform-origin: 285.76px 73.2202px 0px;" id="elys3aam2ffvr" class="animable"></path><path d="M293.9,64.08A9.83,9.83,0,0,1,292,62.86a9.52,9.52,0,0,1-1.74-1.45,8.89,8.89,0,0,1,1.9,1.22A9.23,9.23,0,0,1,293.9,64.08Z" style="fill: rgb(38, 50, 56); transform-origin: 292.08px 62.745px 0px;" id="el6uh69ovl3uf" class="animable"></path><path d="M297.51,59.42a6.74,6.74,0,0,1-3.12.73c-.9,0-1.69-.08-2.27-.11a4.85,4.85,0,0,1-.93-.08,2.34,2.34,0,0,1,.94-.12c.58,0,1.38,0,2.25,0A24.31,24.31,0,0,0,297.51,59.42Z" style="fill: rgb(38, 50, 56); transform-origin: 294.35px 59.7852px 0px;" id="eltzrvo436qz" class="animable"></path></g><g id="freepik--Sun--inject-2" style="transform-origin: 95.62px 72.97px 0px;" class="animable animator-hidden"><g id="elkttk1j012kr"><circle cx="95.62" cy="72.97" r="33.54" style="fill: #9E6E69; transform-origin: 95.62px 72.97px 0px; transform: rotate(-83.04deg);" class="animable" id="elhqbxcqvotq"></circle></g><g id="eleg8np0vmppo"><g style="opacity: 0.9; transform-origin: 95.62px 72.97px 0px;" class="animable" id="elebiniu0dkn"><g id="elunf62tc88bs"><circle cx="95.62" cy="72.97" r="33.54" style="fill: rgb(255, 255, 255); transform-origin: 95.62px 72.97px 0px; transform: rotate(-83.04deg);" class="animable" id="elh226gbs55s4"></circle></g></g></g><g id="elof4xpuoy009"><circle cx="95.62" cy="72.97" r="29.92" style="fill: #9E6E69; transform-origin: 95.62px 72.97px 0px; transform: rotate(-45deg);" class="animable" id="elycocuryfr9g"></circle></g><g id="elp9vpbpjq3lq"><g style="opacity: 0.6; transform-origin: 95.62px 72.97px 0px;" class="animable" id="elsptkuv3vhw"><g id="elcdnwz0xts1"><circle cx="95.62" cy="72.97" r="29.92" style="fill: rgb(255, 255, 255); transform-origin: 95.62px 72.97px 0px; transform: rotate(-45deg);" class="animable" id="elzvzwuz0ob2"></circle></g></g></g><g id="elbpca2k3n7w9"><circle cx="95.62" cy="72.97" r="24.89" style="fill: #9E6E69; transform-origin: 95.62px 72.97px 0px; transform: rotate(-6.99deg);" class="animable" id="elqkbtbmf0zwf"></circle></g><g id="elnwo71fwrnu"><g style="opacity: 0.3; transform-origin: 95.62px 72.97px 0px;" class="animable" id="el6oqixpbpagf"><g id="ele4yxrh17zso"><circle cx="95.62" cy="72.97" r="24.89" style="fill: rgb(255, 255, 255); transform-origin: 95.62px 72.97px 0px; transform: rotate(-6.99deg);" class="animable" id="elnluyvp9gegc"></circle></g></g></g><g id="elpxumn5ymfns"><circle cx="95.62" cy="72.97" r="19.93" style="fill: #9E6E69; transform-origin: 95.62px 72.97px 0px; transform: rotate(-45deg);" class="animable" id="elos7i72oy1tf"></circle></g></g><g id="freepik--trees-2--inject-2" style="transform-origin: 268.835px 282.047px 0px;" class="animable animator-active"><path d="M171.56,214.14S198,290.45,200.36,471.7H179.83s6.22-170.5-15.36-256.3Z" style="fill: rgb(111, 68, 57); transform-origin: 182.415px 342.92px 0px;" id="el87murvs6mo3" class="animable"></path><path d="M172.51,220c0-6.8,5.51-23.6,5.51-23.6l-4.57-1.17,7.41-3.2L190,177.75l-8.11-1.35c1.31-2,13.57-5,13.57-5l9.31-8.26-10.08-.52c6.36-5.57,18.27-5.88,18.27-5.88l13.78-11.2c-9.25-1.37-39.65-1.13-55.95,21.46s-1.11,54-1.11,54" style="fill: rgb(69, 90, 100); transform-origin: 194.993px 183.038px 0px;" id="elj2c7ppaee5a" class="animable"></path><path d="M168.58,214.8a2.78,2.78,0,0,0,0-.61c0-.45-.13-1-.21-1.74-.05-.38-.11-.79-.17-1.25s-.08-.95-.12-1.49c-.07-1.07-.22-2.29-.22-3.64,0-.68,0-1.39,0-2.13s0-1.5,0-2.3c0-1.59.19-3.28.34-5.06a68.5,68.5,0,0,1,6.28-22.28c.8-1.59,1.53-3.13,2.36-4.49.4-.68.75-1.37,1.15-2s.79-1.21,1.15-1.78c.71-1.16,1.47-2.12,2.09-3,.32-.44.61-.85.89-1.21l.79-1,1.09-1.37a2.33,2.33,0,0,0,.35-.5,3.12,3.12,0,0,0-.43.44l-1.16,1.31-.83.95c-.29.36-.59.76-.92,1.19-.64.87-1.42,1.82-2.15,3l-1.19,1.77c-.41.62-.77,1.3-1.19,2-.84,1.36-1.59,2.9-2.41,4.5a72.39,72.39,0,0,0-4.15,10.94,71.31,71.31,0,0,0-2.17,11.49c-.14,1.79-.3,3.49-.29,5.09,0,.8,0,1.58,0,2.32s.06,1.45.08,2.13c0,1.36.2,2.58.3,3.66,0,.53.1,1,.16,1.49s.14.87.21,1.25c.12.71.22,1.28.3,1.72A4.22,4.22,0,0,0,168.58,214.8Z" style="fill: rgb(38, 50, 56); transform-origin: 175.905px 186.875px 0px;" id="el3zy33jen5uw" class="animable"></path><path d="M80.41,184.69c.25-.07.55-.14.89-.2,6.68-1.27,28.48-1.2,28.48-1.2l.57-3.52,5.14,7.39,15.83,6.5-2.6-10.75c2.23.9,9.85,14.31,9.85,14.31l9.82,9.26L147,196.54c6.69,5.18,9.27,16.76,9.27,16.76l13.19,9.59c-.43-9.35-9.55-34.74-34.85-46.4S80.41,184.69,80.41,184.69Z" style="fill: rgb(69, 90, 100); transform-origin: 124.935px 197.856px 0px;" id="elzgw9ydrzy2" class="animable"></path><path d="M81.94,184.52l.26-.11L83,184c.66-.33,1.59-.9,2.86-1.49a64,64,0,0,1,11.08-4.15,60.67,60.67,0,0,1,17.37-2.08,57.84,57.84,0,0,1,10.27,1.27,54.06,54.06,0,0,1,10.49,3.6,56,56,0,0,1,17,12.93,67.46,67.46,0,0,1,5.82,7.35c1.7,2.41,3.1,4.76,4.37,6.93,2.46,4.35,4.22,8,5.39,10.56.61,1.26,1,2.27,1.35,2.93.15.32.26.57.36.76a2.34,2.34,0,0,0,.13.26.84.84,0,0,0-.09-.27l-.31-.78c-.29-.69-.68-1.7-1.26-3-1.12-2.57-2.83-6.26-5.27-10.66-1.25-2.17-2.64-4.55-4.33-7a68.06,68.06,0,0,0-5.82-7.43,56,56,0,0,0-17.12-13.06,54.49,54.49,0,0,0-10.6-3.63,58.73,58.73,0,0,0-10.36-1.25,60.19,60.19,0,0,0-28.55,6.51c-1.25.62-2.17,1.22-2.82,1.57l-.72.43Z" style="fill: rgb(38, 50, 56); transform-origin: 125.715px 199.323px 0px;" id="elfh4dkmq8hyd" class="animable"></path><path d="M170,221.56l.29-.93s-26.87-14.82-56.18-2.21-38.95,32.1-41.25,36.26-7.08,17.48-7.08,17.48L82.74,258.8S89.68,241,96.18,236.86c0,0-10.84,21.68-9,32,0,0,10.8-10.59,13.31-11.86,0,0,2.22-11.75,9.28-18.12l-3,12.29L122,238.86l3.78-7.48,2.8,3.08S142.37,223.82,170,221.56Z" style="fill: rgb(69, 90, 100); transform-origin: 118.035px 242.748px 0px;" id="el15jy467zyyi" class="animable"></path><path d="M167.48,222c.17-.22,1.74-.17,2-.45,4.8-5.42,21.63-12.5,21.63-12.5l-1.86-3,9.28,2.1,17.73-5.72-9.36-6.31c2.48-.82,17.88,4.13,17.88,4.13L241.63,202l-11.76-9.76c4.68,1.19,20.57,8.2,20.57,8.2l19.13-.6c-6.6-6.71-33.45-26.77-62.64-18.58S167.48,222,167.48,222Z" style="fill: rgb(69, 90, 100); transform-origin: 218.525px 200.663px 0px;" id="el69piveyghlj" class="animable"></path><path d="M98.84,238.1s.17-.21.49-.61a16.74,16.74,0,0,1,1.52-1.66,25.5,25.5,0,0,1,2.75-2.25c1.11-.83,2.47-1.65,3.92-2.62a78.24,78.24,0,0,1,25.2-10.16,77.24,77.24,0,0,1,14.92-1.7l1.71,0c.57,0,1.12,0,1.67,0,1.09,0,2.16.05,3.18.12,2.05.2,4,.29,5.69.59l2.47.36,2.18.43c1.37.27,2.54.5,3.48.77l2.19.55.77.17a3.62,3.62,0,0,0-.74-.26l-2.17-.63c-.94-.3-2.11-.56-3.47-.85-.69-.15-1.41-.32-2.19-.47l-2.47-.39c-1.73-.32-3.66-.44-5.71-.65-1-.08-2.1-.09-3.2-.14-.55,0-1.11-.06-1.68-.06l-1.72,0a76.75,76.75,0,0,0-40.28,12c-1.45,1-2.8,1.83-3.91,2.69a24.33,24.33,0,0,0-2.72,2.34,14.28,14.28,0,0,0-1.46,1.72c-.15.21-.26.38-.33.49S98.83,238.1,98.84,238.1Z" style="fill: rgb(38, 50, 56); transform-origin: 134.909px 228.37px 0px;" id="el9v0jnthjjbr" class="animable"></path><path d="M166.48,223.24l-.4-.64S143.64,231,136.2,254.72s-.81,39.38.48,42.86,6.75,13.08,6.75,13.08l.71-16.83s-7-13.14-6.15-19.11c0,0,7.32,17.44,14.36,21.57,0,0-.77-11.78-.25-13.91,0,0-5.82-7.29-6-14.7l5.75,8,.45-15.24-2.5-6,3.24-.1S153.77,240.75,166.48,223.24Z" style="fill: rgb(69, 90, 100); transform-origin: 149.603px 266.63px 0px;" id="elw9xp86ug3w" class="animable"></path><path d="M140.08,273.78s0-.21-.12-.61a13.86,13.86,0,0,1-.2-1.74,20.66,20.66,0,0,1,.06-2.77c.07-1.08.28-2.3.44-3.66a61.29,61.29,0,0,1,13.39-29.77l.85-1c.28-.34.58-.65.87-1,.58-.62,1.13-1.25,1.69-1.82,1.15-1.11,2.19-2.2,3.24-3.07l1.47-1.28,1.36-1.07c.85-.67,1.59-1.25,2.23-1.67l1.44-1a4.79,4.79,0,0,0,.49-.38,3.71,3.71,0,0,0-.53.32c-.37.23-.86.55-1.48,1s-1.4,1-2.27,1.62l-1.39,1-1.49,1.27c-1.07.86-2.11,1.94-3.29,3-.56.57-1.12,1.19-1.71,1.82-.29.32-.59.63-.88,1l-.86,1a59,59,0,0,0-6.64,9.73A59.73,59.73,0,0,0,140,265c-.15,1.36-.34,2.59-.39,3.68a18.42,18.42,0,0,0,0,2.79,11.65,11.65,0,0,0,.27,1.75c.05.2.1.34.13.44S140.07,273.78,140.08,273.78Z" style="fill: rgb(38, 50, 56); transform-origin: 153.424px 248.36px 0px;" id="el8pq2eykgws7" class="animable"></path><path d="M169.12,221.93l-.18-.73s21.68-10.16,43.85,1.17,28.68,27,30.25,30.36,4.62,14,4.62,14l-12.51-11.28s-4.49-14.19-9.33-17.78c0,0,7.32,17.44,5.33,25.36,0,0-7.87-8.8-9.75-9.92,0,0-1.13-9.26-6.3-14.58l1.71,9.72-11.19-10.35-2.57-6-2.34,2.25S190.52,225.12,169.12,221.93Z" style="fill: rgb(69, 90, 100); transform-origin: 208.3px 241.871px 0px;" id="eldjpin7j553" class="animable"></path><path d="M223.68,238.48s-.12-.17-.35-.5a14.77,14.77,0,0,0-1.1-1.37,20.49,20.49,0,0,0-2-1.89c-.83-.71-1.84-1.42-2.92-2.25a61.2,61.2,0,0,0-30.63-11.3l-1.33-.12c-.44,0-.87,0-1.3-.05-.86,0-1.68-.07-2.49-.07-1.6,0-3.1,0-4.45.17l-2,.14-1.72.23c-1.07.14-2,.26-2.75.42l-1.73.32a4.61,4.61,0,0,1-.61.09,2.77,2.77,0,0,1,.59-.16l1.73-.39c.74-.18,1.67-.32,2.74-.48l1.73-.25,1.95-.18c1.36-.16,2.86-.15,4.47-.21.81,0,1.64,0,2.5.05.43,0,.87,0,1.31,0l1.34.11a60.1,60.1,0,0,1,30.75,11.43c1.07.84,2.08,1.57,2.9,2.29a19.59,19.59,0,0,1,2,2,10.56,10.56,0,0,1,1.06,1.42c.11.17.18.31.23.4S223.69,238.48,223.68,238.48Z" style="fill: rgb(38, 50, 56); transform-origin: 195.991px 229.555px 0px;" id="el79iukd5as6b" class="animable"></path><path d="M135.79,234.67a11.42,11.42,0,0,0,1.23-.87c.78-.58,1.92-1.41,3.36-2.37s3.22-2,5.24-3.11l1.55-.83a11.7,11.7,0,0,1,1.64-.77c1.15-.45,2.39-.84,3.64-1.28a23.83,23.83,0,0,1,3.69-1.05c1.22-.27,2.4-.51,3.53-.72,2.26-.42,4.3-.74,6-1l4.07-.53a8.72,8.72,0,0,0,1.5-.23,1.49,1.49,0,0,0-.39,0c-.26,0-.64,0-1.12.06-1,.06-2.38.18-4.11.39s-3.78.49-6,.89c-1.14.2-2.32.43-3.55.69A24.57,24.57,0,0,0,152.3,225c-1.25.44-2.48.84-3.66,1.3a12.39,12.39,0,0,0-1.68.8l-1.55.85c-2,1.12-3.78,2.22-5.21,3.21s-2.54,1.87-3.29,2.5c-.37.3-.65.56-.84.73S135.78,234.66,135.79,234.67Z" style="fill: rgb(38, 50, 56); transform-origin: 153.515px 228.284px 0px;" id="eljsj3c8zl6c" class="animable"></path><path d="M232.56,187.08a4.51,4.51,0,0,0-.67-.18c-.45-.09-1.1-.27-2-.4a45.14,45.14,0,0,0-7.55-.63,53.07,53.07,0,0,0-11.55,1.24A59.42,59.42,0,0,0,197,192a61.19,61.19,0,0,0-12.33,8.31,58.84,58.84,0,0,0-8.23,8.74,50.85,50.85,0,0,0-4.33,6.63c-.46.8-.74,1.45-1,1.88a4.73,4.73,0,0,0-.3.67,4.12,4.12,0,0,0,.4-.64c.25-.42.56-1,1.05-1.84a56.9,56.9,0,0,1,4.45-6.52,60.17,60.17,0,0,1,8.23-8.59,62.27,62.27,0,0,1,12.22-8.19,59.77,59.77,0,0,1,13.68-4.88,54.65,54.65,0,0,1,11.45-1.34,50.36,50.36,0,0,1,7.54.46c.88.1,1.54.25,2,.3A3.43,3.43,0,0,0,232.56,187.08Z" style="fill: rgb(38, 50, 56); transform-origin: 201.685px 202.05px 0px;" id="els2tketgb56h" class="animable"></path><path d="M363.18,155.6s-48,88.77-50.19,316.1h28.19S318.94,359,369.94,157.18Z" style="fill: rgb(111, 68, 57); transform-origin: 341.465px 313.65px 0px;" id="elamvibilb9n9" class="animable"></path><path d="M363.57,156.52c-1.07-6.38-8.81-21.32-8.81-21.32l4.11-1.8-7.45-1.86-10.77-12,7.4-2.52c-1.54-1.7-13.52-2.63-13.52-2.63l-10-6.33,9.39-2c-6.83-4.25-18.08-2.71-18.08-2.71L301.15,94.9c8.49-2.72,37.08-7.18,55.88,11.53S366.4,157,366.4,157" style="fill: rgb(69, 90, 100); transform-origin: 334.958px 124.697px 0px;" id="elu0joeiuw7u" class="animable"></path><path d="M366.46,151a3.8,3.8,0,0,1,0-.58c0-.43,0-1-.07-1.66,0-.37,0-.77,0-1.2s-.07-.91-.11-1.42c-.1-1-.15-2.19-.36-3.46-.09-.64-.18-1.31-.28-2s-.26-1.41-.4-2.15c-.25-1.5-.68-3.06-1.1-4.71a65.38,65.38,0,0,0-9.33-20c-1-1.38-1.93-2.71-2.91-3.86-.48-.58-.92-1.17-1.39-1.69l-1.36-1.5c-.84-1-1.71-1.76-2.43-2.49-.36-.36-.69-.7-1-1s-.63-.55-.9-.8c-.51-.45-.91-.82-1.23-1.11s-.42-.4-.41-.42a3.2,3.2,0,0,1,.47.35l1.29,1,.93.77c.33.29.67.62,1,1,.74.71,1.63,1.49,2.49,2.46.44.47.9,1,1.39,1.48s.93,1.1,1.42,1.68c1,1.15,1.94,2.48,3,3.86a69.3,69.3,0,0,1,5.59,9.64,70.44,70.44,0,0,1,3.81,10.46c.4,1.66.82,3.24,1.06,4.74.13.75.29,1.47.38,2.17s.17,1.38.25,2c.19,1.28.22,2.46.29,3.48,0,.51.07,1,.08,1.43s0,.84,0,1.21c0,.68,0,1.23,0,1.66A2.39,2.39,0,0,1,366.46,151Z" style="fill: rgb(38, 50, 56); transform-origin: 354.907px 125.975px 0px;" id="elq4kefszyv3c" class="animable"></path><path d="M453.26,125.1c-.24-.08-.51-.16-.83-.24-6.28-1.58-27-2.7-27-2.7l-.36-3.38-5.28,6.75-15.4,5.32,3.06-10.07c-2.17.72-10.14,13.06-10.14,13.06l-9.84,8.27,1.88-9.37c-6.64,4.56-9.72,15.43-9.72,15.43l-13.06,8.39c.92-8.86,11-32.5,35.65-42.21S453.26,125.1,453.26,125.1Z" style="fill: rgb(69, 90, 100); transform-origin: 409.915px 134.148px 0px;" id="elpdtis1mgh2" class="animable"></path><path d="M451.82,124.85s-.09,0-.25-.12l-.68-.41c-.62-.35-1.47-.94-2.64-1.57a60.12,60.12,0,0,0-10.31-4.55,57.76,57.76,0,0,0-16.4-2.93,56.55,56.55,0,0,0-9.83.65,52.5,52.5,0,0,0-10.17,2.85,53.48,53.48,0,0,0-16.85,11.37,65.09,65.09,0,0,0-5.94,6.68c-1.74,2.19-3.2,4.35-4.52,6.34-2.59,4-4.45,7.39-5.71,9.75-.64,1.17-1.1,2.1-1.44,2.71l-.38.71a1.05,1.05,0,0,1-.14.23,1.23,1.23,0,0,1,.1-.25l.34-.73c.31-.63.74-1.57,1.36-2.76,1.21-2.38,3-5.8,5.59-9.84,1.31-2,2.76-4.19,4.5-6.4a64.26,64.26,0,0,1,5.94-6.75,53.25,53.25,0,0,1,17-11.49,52.6,52.6,0,0,1,10.27-2.87,56.41,56.41,0,0,1,9.91-.63,57.44,57.44,0,0,1,26.79,7.75c1.16.66,2,1.28,2.6,1.65l.66.45Z" style="fill: rgb(38, 50, 56); transform-origin: 409.19px 135.691px 0px;" id="el52o4xcod5jc" class="animable"></path><path d="M366.16,157.6l-.41-.82S388.7,138.71,418.19,146s41.55,24.15,44.35,27.7,9.35,15.34,9.35,15.34l-18-9.94s-9.26-15.62-16-18.55c0,0,13.53,18.7,13.36,28.67,0,0-11.78-8.28-14.33-9.09,0,0-3.9-10.7-11.52-15.59l4.72,11.08L414,166.45,409.24,160l-2.16,3.32S392.48,155.47,366.16,157.6Z" style="fill: rgb(69, 90, 100); transform-origin: 418.82px 166.744px 0px;" id="el1qf19onhu4b" class="animable"></path><path d="M368.61,157.64c-.19-.19-1.66.1-1.93-.12-5.35-4.35-22.25-8.41-22.25-8.41l1.28-3.12-8.39,3.4-17.55-2.64,7.83-7.37c-2.46-.39-16.16,6.63-16.16,6.63l-15.59,4.27,9.55-11c-4.21,1.83-18.06,10.88-18.06,10.88l-18.07,2.38c5.17-7.32,27.3-30.31,56-27.11S368.61,157.64,368.61,157.64Z" style="fill: rgb(69, 90, 100); transform-origin: 318.94px 141.383px 0px;" id="el7wyti2dcmbs" class="animable"></path><path d="M435.59,162.17a5.33,5.33,0,0,1-.56-.5,16.91,16.91,0,0,0-1.69-1.32,23.79,23.79,0,0,0-2.92-1.69c-1.18-.61-2.58-1.17-4.1-1.86a74.78,74.78,0,0,0-39.52-5l-1.61.23c-.53.08-1.05.2-1.56.3-1,.21-2,.38-3,.6-1.9.5-3.68.89-5.26,1.43l-2.26.72-2,.74c-1.24.46-2.31.86-3.15,1.26l-2,.86a5.1,5.1,0,0,1-.7.27,3.31,3.31,0,0,1,.66-.35l1.94-.94c.84-.42,1.9-.85,3.13-1.33.62-.24,1.28-.52,2-.78l2.27-.75c1.58-.56,3.36-1,5.26-1.49,1-.23,2-.41,3-.62.51-.1,1-.22,1.56-.31l1.62-.24a73.25,73.25,0,0,1,39.71,5.07c1.51.71,2.91,1.29,4.08,1.93a22.32,22.32,0,0,1,2.91,1.77,13.54,13.54,0,0,1,1.65,1.4,5.53,5.53,0,0,1,.38.41Z" style="fill: rgb(38, 50, 56); transform-origin: 400.425px 156.375px 0px;" id="elkhv6gcdbxyr" class="animable"></path><path d="M367.91,157.83l.22-.68s22.65,2.59,35,22.85,9.76,36.21,9.37,39.72-3.25,13.64-3.25,13.64L404.7,218s3.45-13.74,1.32-19.07c0,0-2.78,17.8-8.34,23.23,0,0-2-11.07-2.95-12.92,0,0,3.71-8.06,2.18-15L393.43,203l-3.9-14,.93-6.16-3,.66S383.66,171.11,367.91,157.83Z" style="fill: rgb(69, 90, 100); transform-origin: 390.45px 195.255px 0px;" id="elksyqwfwutc" class="animable"></path><path d="M403.87,198.5s0-.2,0-.58a11.58,11.58,0,0,0-.21-1.66,18.86,18.86,0,0,0-.69-2.55c-.32-1-.79-2.06-1.25-3.28a58.3,58.3,0,0,0-10.88-17,57.39,57.39,0,0,0-8.3-7.45l-1-.76c-.34-.25-.69-.47-1-.7-.68-.44-1.33-.9-2-1.3-1.32-.76-2.52-1.52-3.69-2.09l-1.65-.85-1.51-.67c-.94-.43-1.75-.79-2.44-1l-1.56-.6a3.26,3.26,0,0,1-.54-.24,4.38,4.38,0,0,1,.56.17l1.59.55c.69.22,1.51.57,2.47,1l1.52.66,1.67.83c1.18.55,2.4,1.31,3.73,2.06.66.4,1.31.85,2,1.29l1,.69,1,.76a55.83,55.83,0,0,1,8.36,7.48,56.73,56.73,0,0,1,10.86,17.14c.45,1.23.9,2.32,1.2,3.31a16.67,16.67,0,0,1,.64,2.59,10.28,10.28,0,0,1,.15,1.67,4.33,4.33,0,0,1,0,.44C403.89,198.45,403.88,198.5,403.87,198.5Z" style="fill: rgb(38, 50, 56); transform-origin: 385.528px 178.135px 0px;" id="elem6mizjd90b" class="animable"></path><path d="M367.06,157.82l.06-.72s-21.94-6.2-41,7.86-22.78,29.79-23.74,33.19S300.17,212,300.17,212l10-12.53s2-14,6-18.14c0,0-4.19,17.51-1.1,24.65,0,0,6-9.48,7.63-10.82,0,0-.37-8.88,3.67-14.67l-.1,9.39,8.92-11.45,1.48-6.05,2.54,1.75S347.45,164.11,367.06,157.82Z" style="fill: rgb(69, 90, 100); transform-origin: 333.645px 183.869px 0px;" id="el6ikp0lc6d3" class="animable"></path><path d="M311.45,192.3a6.61,6.61,0,0,0,.32-.7c.2-.45.52-1.12,1-1.94a33.86,33.86,0,0,1,1.87-2.85c.76-1.08,1.72-2.21,2.72-3.52a80,80,0,0,1,18.2-16.49A64,64,0,0,1,346.76,161l1.31-.52c.43-.17.85-.3,1.27-.44.84-.28,1.66-.57,2.45-.81,1.58-.4,3-.86,4.4-1.08l1.93-.39,1.71-.23a26.27,26.27,0,0,1,2.74-.29l1.73-.13a2.66,2.66,0,0,0,.6-.07,3.3,3.3,0,0,0-.59,0l-1.73,0a27,27,0,0,0-2.74.22l-1.71.2-1.94.36c-1.35.2-2.83.64-4.42,1-.8.22-1.62.52-2.46.78-.42.15-.85.27-1.29.44l-1.31.52a62.41,62.41,0,0,0-11.29,5.82,78.12,78.12,0,0,0-18.24,16.68c-1,1.32-1.95,2.48-2.7,3.58a29.38,29.38,0,0,0-1.84,2.91,20.48,20.48,0,0,0-.94,2c-.09.24-.15.42-.19.54A1.13,1.13,0,0,0,311.45,192.3Z" style="fill: rgb(38, 50, 56); transform-origin: 338.175px 174.663px 0px;" id="elpkm02wd9s8" class="animable"></path><path d="M302.08,134.86a3,3,0,0,1,.6-.28c.41-.16,1-.43,1.8-.68a42.41,42.41,0,0,1,7-1.76,51.18,51.18,0,0,1,11-.61A56.4,56.4,0,0,1,336.28,134a58.21,58.21,0,0,1,12.86,5.91,55.48,55.48,0,0,1,9.09,6.94,48.28,48.28,0,0,1,5.08,5.55c.56.69.93,1.26,1.2,1.63a4.3,4.3,0,0,1,.38.58,3.37,3.37,0,0,1-.47-.54c-.3-.35-.69-.9-1.27-1.57a53.67,53.67,0,0,0-5.19-5.43,56.39,56.39,0,0,0-9.06-6.81,59.33,59.33,0,0,0-12.74-5.81A57,57,0,0,0,322.55,132a52.38,52.38,0,0,0-11,.51,47.19,47.19,0,0,0-7,1.6c-.81.22-1.41.46-1.83.59A4,4,0,0,1,302.08,134.86Z" style="fill: rgb(38, 50, 56); transform-origin: 333.485px 143.035px 0px;" id="el6m8rk4vn3fl" class="animable"></path></g><g id="freepik--trees-1--inject-2" style="transform-origin: 246.49px 307.759px 0px;" class="animable animator-hidden"><path d="M272.08,212s-19,79.51-4.95,260l20.8-.65S265.56,300,279.25,212.65Z" style="fill: rgb(174, 116, 97); transform-origin: 274.941px 342px 0px;" id="elhaw4hwdixxi" class="animable"></path><path d="M272.2,224.45c.23-.06.49-.1.79-.15,5.89-.86,24.93.33,24.93.33l.65-3.29,4.17,7.23,13.55,6.93-1.81-10.25c1.91.95,8,14,8,14l8.18,9.23-1.21-14.19c5.62,5.22,7.77,21,7.77,21l11.42,11.42c0-8.83-7.15-34.93-28.74-47.22S272.2,224.45,272.2,224.45Z" style="fill: #9E6E69; transform-origin: 310.42px 240.891px 0px;" id="elq7m3oqfvxih" class="animable"></path><g id="el8go1tmzc6wg"><g style="opacity: 0.3; transform-origin: 310.42px 240.891px 0px;" class="animable" id="elykg81nir5f"><path d="M272.2,224.45c.23-.06.49-.1.79-.15,5.89-.86,24.93.33,24.93.33l.65-3.29,4.17,7.23,13.55,6.93-1.81-10.25c1.91.95,8,14,8,14l8.18,9.23-1.21-14.19c5.62,5.22,7.77,21,7.77,21l11.42,11.42c0-8.83-7.15-34.93-28.74-47.22S272.2,224.45,272.2,224.45Z" id="el57paemd0s2y" style="transform-origin: 310.42px 240.891px 0px;" class="animable"></path></g></g><path d="M277.45,219.8c.08-.22.17-.47.29-.75,2.37-5.46,13.41-21,13.41-21l-2.45-2.29L297,196l13-7.87-9.67-3.86c1.82-1.13,16.09.58,16.09.58l12.15-2.09L316,176.32c7.39-2,21.95,4.46,21.95,4.46l15.72-3.69c-7.49-4.67-33.45-12.32-55.27-.44S277.45,219.8,277.45,219.8Z" style="fill: #9E6E69; transform-origin: 315.558px 195.063px 0px;" id="el99ims5hd5f" class="animable"></path><g id="elfarvldiwbms"><g style="opacity: 0.3; transform-origin: 315.558px 195.063px 0px;" class="animable" id="elzljbuop8rlb"><path d="M277.45,219.8c.08-.22.17-.47.29-.75,2.37-5.46,13.41-21,13.41-21l-2.45-2.29L297,196l13-7.87-9.67-3.86c1.82-1.13,16.09.58,16.09.58l12.15-2.09L316,176.32c7.39-2,21.95,4.46,21.95,4.46l15.72-3.69c-7.49-4.67-33.45-12.32-55.27-.44S277.45,219.8,277.45,219.8Z" id="ell91jttmqoem" style="transform-origin: 315.558px 195.063px 0px;" class="animable"></path></g></g><path d="M270.79,223.23c-.23,0-.49.11-.78.19-5.72,1.62-22.61,10.5-22.61,10.5l-1.94-2.73-.84,8.3-9.53,11.87-2.54-10.1c-1.36,1.66-1.56,16-1.56,16l-3.69,11.76-4.7-13.43c-3,7.06,1.51,22.35,1.51,22.35l-5.74,15.09c-3.64-8.05-7.78-34.79,6.89-54.84S270.79,223.23,270.79,223.23Z" style="fill: #9E6E69; transform-origin: 242.849px 257.841px 0px;" id="elq88zfvl418h" class="animable"></path><g id="elv1xwhcssjh"><g style="opacity: 0.3; transform-origin: 242.849px 257.841px 0px;" class="animable" id="el1gflhr1vnm5"><path d="M270.79,223.23c-.23,0-.49.11-.78.19-5.72,1.62-22.61,10.5-22.61,10.5l-1.94-2.73-.84,8.3-9.53,11.87-2.54-10.1c-1.36,1.66-1.56,16-1.56,16l-3.69,11.76-4.7-13.43c-3,7.06,1.51,22.35,1.51,22.35l-5.74,15.09c-3.64-8.05-7.78-34.79,6.89-54.84S270.79,223.23,270.79,223.23Z" id="el5gnyhc92ayp" style="transform-origin: 242.849px 257.841px 0px;" class="animable"></path></g></g><path d="M268.86,219.8c0-.24,0-.5-.05-.8-.59-5.92-6.37-24.11-6.37-24.11l3-1.43-8-2.29-10-11.46,10.39-.73c-1.39-1.63-15.51-4.35-15.51-4.35l-10.94-5.69,14.06-2.27c-6.43-4.18-22.27-2.44-22.27-2.44l-13.85-8.3c8.56-2.17,35.62-1.55,52.78,16.41S268.86,219.8,268.86,219.8Z" style="fill: #9E6E69; transform-origin: 240.651px 187.425px 0px;" id="eljobzlqyod9" class="animable"></path><g id="elgacd3vh4os6"><g style="opacity: 0.3; transform-origin: 240.651px 187.425px 0px;" class="animable" id="el5es2w07lv03"><path d="M268.86,219.8c0-.24,0-.5-.05-.8-.59-5.92-6.37-24.11-6.37-24.11l3-1.43-8-2.29-10-11.46,10.39-.73c-1.39-1.63-15.51-4.35-15.51-4.35l-10.94-5.69,14.06-2.27c-6.43-4.18-22.27-2.44-22.27-2.44l-13.85-8.3c8.56-2.17,35.62-1.55,52.78,16.41S268.86,219.8,268.86,219.8Z" id="elq5brzwad97j" style="transform-origin: 240.651px 187.425px 0px;" class="animable"></path></g></g><path d="M270.35,223.56c-3.76-5.65-17.56-16.65-17.56-16.65l3.17-3.49-7.93,1.4-15.46-6.9,6-5.58c-2.2-1-14.08,3.26-14.08,3.26l-12.3-1.78,8.12-6C212,186.7,201.86,193,201.86,193l-17.65-1.77c7-6.23,32.45-22.73,58.46-12.84s30.6,44.44,30.6,44.44" style="fill: #9E6E69; transform-origin: 228.74px 199.432px 0px;" id="elf00vgq7lq4" class="animable"></path><path d="M270.77,217.07a2.82,2.82,0,0,1-.3-.54c-.2-.4-.46-.92-.77-1.56l-.55-1.13c-.21-.41-.46-.84-.72-1.31-.53-.94-1.08-2-1.82-3.16l-1.12-1.8c-.4-.63-.86-1.24-1.31-1.89-.88-1.32-2-2.64-3.06-4a68.51,68.51,0,0,0-17.48-15.13c-1.55-.89-3-1.77-4.44-2.45-.71-.35-1.38-.73-2-1l-1.94-.85c-1.23-.58-2.39-1-3.39-1.35l-1.4-.52-1.2-.38-1.66-.54a2.42,2.42,0,0,1-.57-.23,3.57,3.57,0,0,1,.6.13l1.68.46,1.22.34c.44.13.91.31,1.42.48,1,.37,2.19.73,3.43,1.29l2,.83c.69.29,1.37.66,2.09,1,1.45.67,2.92,1.54,4.48,2.42a72.69,72.69,0,0,1,9.47,6.84,71.24,71.24,0,0,1,8.12,8.4c1.11,1.42,2.18,2.75,3.05,4.09.45.66.9,1.28,1.29,1.91l1.1,1.83c.73,1.15,1.26,2.26,1.77,3.21.25.48.49.92.69,1.34s.35.8.51,1.15c.28.66.51,1.19.69,1.6A3.52,3.52,0,0,1,270.77,217.07Z" style="fill: rgb(38, 50, 56); transform-origin: 248.905px 198.15px 0px;" id="elf2ejav6usxe" class="animable"></path><path d="M327.77,143.52a8.69,8.69,0,0,0-.85.32c-6.27,2.6-24.41,14.64-24.41,14.64l-2.42-2.62-.22,9L290.23,179l-3.73-10.39c-1.37,2-.35,17.35-.35,17.35L283,199,278.76,190C276,198,280.24,209,280.24,209l-5.74,15.24c-4.77-8-11.11-34.22,3.58-57.85S327.77,143.52,327.77,143.52Z" style="fill: #9E6E69; transform-origin: 298.363px 183.879px 0px;" id="elja2f261j6yj" class="animable"></path><path d="M326.4,144.22l-.28,0-.83.09c-.74.09-1.83.13-3.21.33a62.73,62.73,0,0,0-11.52,2.63,60.48,60.48,0,0,0-15.63,7.8,58.31,58.31,0,0,0-7.87,6.7,54.18,54.18,0,0,0-6.77,8.77,55.87,55.87,0,0,0-7.07,20.12,68,68,0,0,0-.82,9.33c-.09,2.94,0,5.68.17,8.17.33,5,.88,9,1.3,11.78.19,1.39.39,2.46.49,3.19.05.34.09.61.12.83a1.18,1.18,0,0,1,0,.28s0-.09-.07-.27-.1-.49-.17-.83c-.13-.72-.36-1.79-.58-3.17-.48-2.76-1.08-6.78-1.46-11.78-.15-2.51-.3-5.26-.22-8.21a68.59,68.59,0,0,1,.77-9.39,56,56,0,0,1,7.1-20.3,54.38,54.38,0,0,1,6.85-8.85,58.51,58.51,0,0,1,7.95-6.74,60.1,60.1,0,0,1,27.39-10.25c1.39-.17,2.48-.18,3.22-.24l.84,0Z" style="fill: rgb(38, 50, 56); transform-origin: 299.179px 184.225px 0px;" id="eluka9sp5t74d" class="animable"></path><path d="M273.29,223.49l-.75-.61s14.27-27.13,45.64-32.71,50.13,5.37,54.33,7.58S388,208.44,388,208.44l-21.48-1.83s-15.55-11-23.26-10.92c0,0,21,12.13,25.05,21.75,0,0-14.83-2.9-17.62-2.59,0,0-8.31-8.57-17.69-10l9.25,8.59-19.42-1.9-7.26-4.16-.65,4.1S297.59,210.2,273.29,223.49Z" style="fill: #9E6E69; transform-origin: 330.27px 206.047px 0px;" id="el5234tbqf9ra" class="animable"></path><path d="M275.65,222.48c-.26-.1-1.54.81-1.9.71-7-1.88-24.91,1.46-24.91,1.46l-.1-3.54L242.15,228l-17.94,5,4.36-10.41c-2.53.68-12.65,13.27-12.65,13.27l-13.1,10.75,4.44-14.61c-3.25,3.56-12.65,18.15-12.65,18.15l-16.28,10c1.81-9.22,13.19-40.7,42-49.91S275.65,222.48,275.65,222.48Z" style="fill: #9E6E69; transform-origin: 226.99px 234.046px 0px;" id="elog43qjkskrb" class="animable"></path><path d="M341.74,198.19s-.26-.09-.74-.24a17.23,17.23,0,0,0-2.18-.55,25.58,25.58,0,0,0-3.53-.37c-1.39-.08-3,0-4.71,0A78.58,78.58,0,0,0,304,202.37a77.66,77.66,0,0,0-13.37,6.78l-1.45.91c-.47.3-.92.64-1.37.95-.88.63-1.77,1.22-2.59,1.85-1.6,1.28-3.14,2.42-4.41,3.61l-1.87,1.66-1.58,1.56c-1,1-1.85,1.81-2.48,2.55l-1.52,1.66a4.51,4.51,0,0,1-.56.56,6.35,6.35,0,0,1,.49-.62l1.45-1.72c.62-.76,1.46-1.62,2.43-2.62.49-.49,1-1,1.57-1.59l1.85-1.68c1.27-1.22,2.8-2.37,4.4-3.68.82-.63,1.7-1.23,2.59-1.88.45-.31.9-.65,1.37-1l1.45-.92a76.69,76.69,0,0,1,40.2-12.12c1.76,0,3.34,0,4.73.1a24.18,24.18,0,0,1,3.55.46,13.58,13.58,0,0,1,2.18.63,5.77,5.77,0,0,1,.54.23C341.69,198.15,341.75,198.18,341.74,198.19Z" style="fill: rgb(38, 50, 56); transform-origin: 307.271px 210.545px 0px;" id="els4a9k7p3tf" class="animable"></path><path d="M274.13,224.09l.17-.73s23.91.58,38.68,20.59,13.59,36.92,13.5,40.62-2.1,14.55-2.1,14.55l-6.16-15.66s2.31-14.68-.41-20c0,0-1.23,18.84-6.54,25,0,0-3.11-11.37-4.29-13.21,0,0,3.11-8.78.87-15.84L305,268.86l-5.39-14.25.39-6.52-3.09,1S291.84,236.48,274.13,224.09Z" style="fill: #9E6E69; transform-origin: 300.334px 261.24px 0px;" id="elue5aox40w3" class="animable"></path><path d="M315.53,263.2a3.55,3.55,0,0,1-.1-.6,11.53,11.53,0,0,0-.37-1.71,18.83,18.83,0,0,0-1-2.6c-.42-1-1-2.08-1.61-3.31a61.16,61.16,0,0,0-13-16.74,60.23,60.23,0,0,0-9.37-7l-1.13-.7c-.38-.22-.77-.42-1.14-.62-.75-.4-1.47-.82-2.19-1.18-1.45-.67-2.78-1.35-4.06-1.83l-1.8-.74-1.64-.56c-1-.36-1.91-.66-2.65-.85l-1.69-.49a4.1,4.1,0,0,1-.58-.19,3,3,0,0,1,.6.12l1.71.42c.75.17,1.64.46,2.67.8.52.17,1.08.34,1.66.54l1.82.71c1.29.47,2.63,1.14,4.09,1.81.73.35,1.45.76,2.21,1.16.38.2.77.4,1.15.62l1.14.7a59.1,59.1,0,0,1,9.45,7,59.82,59.82,0,0,1,13,16.9c.58,1.23,1.16,2.33,1.57,3.34a19.94,19.94,0,0,1,.91,2.64,11.79,11.79,0,0,1,.31,1.74,4.3,4.3,0,0,1,0,.46Z" style="fill: rgb(38, 50, 56); transform-origin: 294.365px 243.64px 0px;" id="elfndy8e4gjgo" class="animable"></path><path d="M274.25,223.31l-.26-.71s-23.66,3.44-35.93,25.07S229,286,229.5,289.61s3.84,14.2,3.84,14.2l4.24-16.28s-4.06-14.3-2-20c0,0,3.47,18.57,9.48,24.09,0,0,1.73-11.66,2.69-13.63,0,0-4.15-8.35-2.76-15.62l3.91,9,3.65-14.78-1.17-6.43,3.19.59S258.15,237.73,274.25,223.31Z" style="fill: #9E6E69; transform-origin: 251.502px 263.205px 0px;" id="elqk5pgbqnfx7" class="animable"></path><path d="M237.83,267.09s0-.21,0-.61a15.2,15.2,0,0,1,.17-1.74,21.61,21.61,0,0,1,.64-2.7c.3-1,.76-2.19,1.21-3.47a61.12,61.12,0,0,1,19.34-26.26l1-.83c.35-.26.71-.5,1.05-.75.7-.49,1.37-1,2-1.43,1.36-.84,2.6-1.68,3.81-2.31l1.7-.94,1.56-.76c1-.48,1.81-.88,2.52-1.16l1.62-.69a4.93,4.93,0,0,0,.56-.26,4,4,0,0,0-.58.2l-1.65.62c-.72.26-1.57.65-2.56,1.11-.49.23-1,.46-1.58.74l-1.72.92c-1.22.61-2.47,1.45-3.85,2.28-.67.44-1.34.93-2.05,1.42l-1.07.75c-.34.28-.69.55-1.05.83a60.05,60.05,0,0,0-19.37,26.43c-.43,1.3-.88,2.45-1.16,3.51a18.68,18.68,0,0,0-.59,2.73,11.32,11.32,0,0,0-.1,1.76c0,.2,0,.35,0,.46S237.82,267.09,237.83,267.09Z" style="fill: rgb(38, 50, 56); transform-origin: 256.344px 245.135px 0px;" id="elr4ygoc5g5ok" class="animable"></path><path d="M309,215.63a12.2,12.2,0,0,1-1.51,0c-1-.06-2.37-.13-4.1-.13s-3.79.08-6.07.28l-1.76.16a12.42,12.42,0,0,0-1.79.25c-1.21.27-2.45.62-3.74.94a24.42,24.42,0,0,0-3.66,1.15c-1.16.45-2.28.9-3.33,1.34-2.12.89-4,1.74-5.56,2.48l-3.7,1.8a9.31,9.31,0,0,1-1.37.63,1.36,1.36,0,0,1,.32-.23l1-.56c.84-.48,2.08-1.15,3.63-1.93s3.43-1.67,5.54-2.58c1.06-.45,2.17-.91,3.34-1.37a23.65,23.65,0,0,1,3.71-1.18c1.28-.31,2.53-.67,3.76-.93a13.3,13.3,0,0,1,1.84-.25l1.76-.14c2.3-.18,4.37-.23,6.11-.19s3.15.17,4.11.28c.49,0,.86.1,1.11.14S309,215.61,309,215.63Z" style="fill: rgb(38, 50, 56); transform-origin: 290.705px 219.844px 0px;" id="elz400djz6xpr" class="animable"></path><path d="M202.19,229.1a3,3,0,0,1,.45-.52c.33-.33.77-.83,1.43-1.42a44.63,44.63,0,0,1,6-4.67,52.63,52.63,0,0,1,10.32-5.31,58.59,58.59,0,0,1,14.23-3.52,60.51,60.51,0,0,1,14.85.16,58.52,58.52,0,0,1,11.67,2.76,50.35,50.35,0,0,1,7.25,3.15c.83.42,1.42.8,1.84,1a4.52,4.52,0,0,1,.61.4,5,5,0,0,1-.68-.32c-.44-.21-1.05-.57-1.89-1a56.83,56.83,0,0,0-7.29-3,61.08,61.08,0,0,0-11.59-2.64,62.38,62.38,0,0,0-14.69-.12,59.46,59.46,0,0,0-14.09,3.45,54.89,54.89,0,0,0-10.29,5.17,49.27,49.27,0,0,0-6,4.53c-.68.56-1.15,1.05-1.51,1.35A4.34,4.34,0,0,1,202.19,229.1Z" style="fill: rgb(38, 50, 56); transform-origin: 236.515px 221.19px 0px;" id="elc737hzhu085" class="animable"></path><path d="M275.1,271.49a3.69,3.69,0,0,1-1.56.67,10,10,0,0,1-4.09.2,10.78,10.78,0,0,1-3.83-1.42c-.89-.56-1.35-1-1.31-1.08a18.69,18.69,0,0,0,5.23,2A15.85,15.85,0,0,0,275.1,271.49Z" style="fill: rgb(111, 68, 57); transform-origin: 269.704px 271.172px 0px;" id="el3vfjqo5gwvo" class="animable"></path><path d="M274.77,290.6a3.89,3.89,0,0,1-1.6.77,10.85,10.85,0,0,1-4.27.47,11.44,11.44,0,0,1-4.14-1.15,4.3,4.3,0,0,1-1.47-1,19.77,19.77,0,0,0,5.65,1.63A17.76,17.76,0,0,0,274.77,290.6Z" style="fill: rgb(111, 68, 57); transform-origin: 269.03px 290.787px 0px;" id="el6ro40ljv2om" class="animable"></path><path d="M275.28,311.12a4.82,4.82,0,0,1-1.76.8,13.22,13.22,0,0,1-9.13-.55,4.93,4.93,0,0,1-1.65-1,22.2,22.2,0,0,0,6.2,1.56A21.6,21.6,0,0,0,275.28,311.12Z" style="fill: rgb(111, 68, 57); transform-origin: 269.01px 311.427px 0px;" id="elxymqg0ju14h" class="animable"></path><path d="M276.08,337.61a6,6,0,0,1-2,.85,16,16,0,0,1-5.2.62,15.65,15.65,0,0,1-5.12-1.09,6,6,0,0,1-1.9-1,24.59,24.59,0,0,0,7,1.61A25.89,25.89,0,0,0,276.08,337.61Z" style="fill: rgb(111, 68, 57); transform-origin: 268.97px 338.043px 0px;" id="elfqvbwnouafa" class="animable"></path><path d="M278.28,370.27a7.91,7.91,0,0,1-2.26,1.09,18.65,18.65,0,0,1-6,1.05,18.39,18.39,0,0,1-6-.91,7.45,7.45,0,0,1-2.27-1.05,26.78,26.78,0,0,0,8.25,1.44A28,28,0,0,0,278.28,370.27Z" style="fill: rgb(111, 68, 57); transform-origin: 270.015px 371.341px 0px;" id="el1myd5pcdlyg" class="animable"></path><path d="M280.78,407.84a9,9,0,0,1-2.37,1.16,20.58,20.58,0,0,1-6.22,1.22,19.9,19.9,0,0,1-6.31-.72,8.06,8.06,0,0,1-2.43-1c0-.08,1,.28,2.52.64a23.47,23.47,0,0,0,6.2.56A31.29,31.29,0,0,0,280.78,407.84Z" style="fill: rgb(111, 68, 57); transform-origin: 272.115px 409.041px 0px;" id="el3iuzf9bwx96" class="animable"></path><path d="M285,451.38a2.37,2.37,0,0,1-.65.41,16.43,16.43,0,0,1-1.9.85,24.41,24.41,0,0,1-6.7,1.51,22.93,22.93,0,0,1-6.85-.44,14.14,14.14,0,0,1-2-.58,2.12,2.12,0,0,1-.69-.32c0-.08,1.06.24,2.77.54a27,27,0,0,0,6.74.28,29.51,29.51,0,0,0,6.61-1.34C283.94,451.75,284.93,451.3,285,451.38Z" style="fill: rgb(111, 68, 57); transform-origin: 275.605px 452.803px 0px;" id="el7fn7qkkoadx" class="animable"></path><path d="M275.47,254.09a2.9,2.9,0,0,1-1.34.65,7.18,7.18,0,0,1-3.6.11,8.5,8.5,0,0,1-3.28-1.48c-.73-.56-1.09-1-1.05-1.05s1.78,1.46,4.44,2A11.39,11.39,0,0,0,275.47,254.09Z" style="fill: rgb(111, 68, 57); transform-origin: 270.834px 253.673px 0px;" id="el1oumm9ff9xb" class="animable"></path><path d="M276.32,238c0,.05-.39.36-1.2.62a6.35,6.35,0,0,1-3.26.08,7.43,7.43,0,0,1-2.92-1.44c-.64-.53-.95-.94-.91-1s1.59,1.35,4,1.92A10,10,0,0,0,276.32,238Z" style="fill: rgb(111, 68, 57); transform-origin: 272.173px 237.566px 0px;" id="el8oc5yqicht4" class="animable"></path><path d="M394.06,312c.17-.15.38-.32.62-.5,4.76-3.57,22.06-11.62,22.06-11.62l-1-3.2,7.11,4.36,15.22-.38-6.49-8.15c2.14-.07,13.7,8.48,13.7,8.48l11.59,4.2L449,293.28c7.43,1.9,16.87,14.74,16.87,14.74l15.48,4.58c-4.19-7.77-23-27.27-47.8-27.75S394.06,312,394.06,312Z" style="fill: #9E6E69; transform-origin: 437.705px 298.722px 0px;" id="elakpmxw2yqk6" class="animable"></path><path d="M394.92,303.71c-.16-5.32-4.81-18.35-4.81-18.35l3.55-1L387.8,282l-7.45-11,6.32-1.22c-1.07-1.56-10.73-3.66-10.73-3.66l-7.46-6.26,7.88-.62c-5.1-4.23-14.44-4.22-14.44-4.22l-11-8.47c7.22-1.27,31-1.74,44.26,15.61s2,42.27,2,42.27" style="fill: #9E6E69; transform-origin: 376.28px 275.219px 0px;" id="el4jpw3e802hx" class="animable"></path><path d="M397.89,299.56a2.19,2.19,0,0,1,0-.48c0-.35.08-.81.13-1.36,0-.3.07-.63.1-1s0-.75.07-1.17c0-.84.12-1.8.09-2.86V291c0-.58-.06-1.18-.09-1.8,0-1.24-.22-2.56-.37-3.95A53.63,53.63,0,0,0,392.45,268c-.67-1.24-1.27-2.42-1.95-3.47-.32-.53-.62-1.05-.94-1.53l-.94-1.37c-.58-.89-1.2-1.63-1.7-2.3-.26-.34-.49-.65-.72-.93l-.64-.75-.88-1.05a2.13,2.13,0,0,1-.29-.38,1.73,1.73,0,0,1,.34.33l.94,1,.67.73c.24.27.48.59.74.91.53.67,1.16,1.39,1.76,2.28l1,1.36c.34.48.64,1,1,1.53.69,1.05,1.31,2.24,2,3.48a52.31,52.31,0,0,1,5.43,17.42c.14,1.4.31,2.73.33,4,0,.63.08,1.23.07,1.82s0,1.13,0,1.67c0,1.06-.09,2-.15,2.87,0,.42-.05.81-.09,1.17s-.1.68-.14,1c-.08.56-.15,1-.2,1.36A2.32,2.32,0,0,1,397.89,299.56Z" style="fill: rgb(38, 50, 56); transform-origin: 391.53px 277.89px 0px;" id="el46pi1fprcjn" class="animable"></path><g id="elvsqw5colq1r"><g style="opacity: 0.3; transform-origin: 376.28px 275.219px 0px;" class="animable" id="elct5nhzaedp"><path d="M394.92,303.71c-.16-5.32-4.81-18.35-4.81-18.35l3.55-1L387.8,282l-7.45-11,6.32-1.22c-1.07-1.56-10.73-3.66-10.73-3.66l-7.46-6.26,7.88-.62c-5.1-4.23-14.44-4.22-14.44-4.22l-11-8.47c7.22-1.27,31-1.74,44.26,15.61s2,42.27,2,42.27" id="elkjvp18lpdtq" style="transform-origin: 376.28px 275.219px 0px;" class="animable"></path></g></g><path d="M350.43,471.9s.44-102.25,35-155.69l8.4-12.75,6,4.46s-18.15,16.63-27.65,74.45c-5.44,33.08-1.76,89.33-1.76,89.33Z" style="fill: rgb(174, 116, 97); transform-origin: 375.13px 387.68px 0px;" id="elvt17cwuljcs" class="animable"></path><path d="M396.35,305.36q.18-.25.39-.6c2.76-4.55,8.68-20.57,8.68-20.57l2.74.54-4-5.79-.43-13.39,7.17,4.85c0-1.89-7.8-11.15-7.8-11.15L399,249.51l6.91,3.76c-2-6.32-9.76-11.39-9.76-11.39l-3.43-12.3c6.74,2.87,22.88,16.52,24.51,38.27S396.35,305.36,396.35,305.36Z" style="fill: #9E6E69; transform-origin: 405.017px 267.47px 0px;" id="elw5fdg5ozdo" class="animable"></path><path d="M396.89,304.28l.16-.16.49-.44c.42-.4,1.09-.92,1.87-1.69a49.06,49.06,0,0,0,6.08-7,47.32,47.32,0,0,0,6.29-12.17,46.31,46.31,0,0,0,1.88-7.88,43.17,43.17,0,0,0,.23-8.69,44.14,44.14,0,0,0-4.84-16,53.28,53.28,0,0,0-3.8-6.28c-1.3-1.9-2.65-3.58-3.89-5.1-2.52-3-4.73-5.29-6.27-6.85-.77-.79-1.39-1.38-1.79-1.79l-.46-.47-.15-.17s.07,0,.18.14l.48.44c.43.4,1.06,1,1.84,1.74,1.58,1.53,3.82,3.79,6.38,6.79,1.25,1.51,2.62,3.18,3.94,5.09a52.89,52.89,0,0,1,3.85,6.3,43.87,43.87,0,0,1,4.91,16.14A42.53,42.53,0,0,1,414,275a45.64,45.64,0,0,1-1.92,7.94,46.78,46.78,0,0,1-6.4,12.22,47.79,47.79,0,0,1-6.19,7c-.81.75-1.49,1.26-1.93,1.64l-.51.41C397,304.24,396.9,304.29,396.89,304.28Z" style="fill: rgb(38, 50, 56); transform-origin: 403.536px 266.936px 0px;" id="el5v8daql6cwm" class="animable"></path><path d="M396.51,305.72l-.25-.72s20.72-12.17,43.93-2.92,31.18,24.3,33.07,27.51,5.92,13.54,5.92,13.54L465.62,333s-5.81-13.76-11-16.89c0,0,8.94,16.74,7.69,24.84,0,0-8.68-8.05-10.67-9,0,0-2-9.14-7.65-14l2.61,9.55-12.15-9.3-3.12-5.77-2.13,2.47S418.19,306.91,396.51,305.72Z" style="fill: #9E6E69; transform-origin: 437.72px 320.87px 0px;" id="el88p8wbuymtn" class="animable"></path><path d="M398.91,305.18c-.14-.17-1.37-.1-1.56-.31-3.88-4.14-17.21-9.33-17.21-9.33l1.4-2.4L374.32,295l-14-4.1,7.2-5.14c-2-.59-13.91,3.61-13.91,3.61l-13.17,1.75,9-7.89c-3.64,1-15.93,6.86-15.93,6.86l-15-.07c5-5.39,25.61-21.67,48.65-15.88S398.91,305.18,398.91,305.18Z" style="fill: #9E6E69; transform-origin: 358.71px 289.046px 0px;" id="eluolygzxfof" class="animable"></path><path d="M452.58,317.16a5.65,5.65,0,0,1-.4-.47,12.31,12.31,0,0,0-1.23-1.26,19.36,19.36,0,0,0-2.19-1.71c-.89-.63-2-1.24-3.13-2a61.42,61.42,0,0,0-19.95-7.42,60.37,60.37,0,0,0-11.72-1h-1.34c-.44,0-.87.05-1.3.07-.85.06-1.69.09-2.49.16-1.6.2-3.09.32-4.44.59l-1.93.33-1.69.38c-1.07.24-2,.45-2.71.68l-1.7.48a2.43,2.43,0,0,1-.61.14l.58-.21,1.69-.54a26.07,26.07,0,0,1,2.7-.74c.53-.13,1.09-.28,1.7-.42l1.93-.35c1.35-.29,2.85-.43,4.45-.64.81-.08,1.64-.11,2.5-.17.43,0,.87-.07,1.31-.08H414a59.93,59.93,0,0,1,31.8,8.54c1.15.75,2.23,1.38,3.11,2a21.3,21.3,0,0,1,2.18,1.77,12.4,12.4,0,0,1,1.19,1.32,3.78,3.78,0,0,1,.26.38A.55.55,0,0,1,452.58,317.16Z" style="fill: rgb(38, 50, 56); transform-origin: 424.165px 310.066px 0px;" id="elmf6kl1lldwi" class="animable"></path><path d="M396.84,305.75l.15-.57s18.73.91,29.93,16.87,10,29.2,9.82,32.1-1.93,11.37-1.93,11.37l-4.53-12.39s2.09-11.47.06-15.73c0,0-1.32,14.76-5.6,19.51,0,0-2.22-9-3.12-10.43,0,0,2.61-6.83,1-12.41l-2.38,7.36-4-11.27.43-5.1-2.44.7S410.49,315.8,396.84,305.75Z" style="fill: #9E6E69; transform-origin: 416.852px 335.35px 0px;" id="elv64yqnq5glo" class="animable"></path><g id="elrf90meullr"><g style="opacity: 0.3; transform-origin: 416.852px 335.35px 0px;" class="animable" id="el2x7zc4nxouy"><path d="M396.84,305.75l.15-.57s18.73.91,29.93,16.87,10,29.2,9.82,32.1-1.93,11.37-1.93,11.37l-4.53-12.39s2.09-11.47.06-15.73c0,0-1.32,14.76-5.6,19.51,0,0-2.22-9-3.12-10.43,0,0,2.61-6.83,1-12.41l-2.38,7.36-4-11.27.43-5.1-2.44.7S410.49,315.8,396.84,305.75Z" id="elzj8n3v7ghe" style="transform-origin: 416.852px 335.35px 0px;" class="animable"></path></g></g><path d="M428.55,337.19s0-.16-.06-.47a8,8,0,0,0-.26-1.35,15.24,15.24,0,0,0-.7-2.06c-.31-.78-.76-1.65-1.2-2.62a48,48,0,0,0-17.06-19l-.88-.57c-.29-.18-.59-.34-.88-.51-.58-.33-1.14-.67-1.7-1-1.12-.56-2.15-1.12-3.14-1.52l-1.4-.61L400,307c-.79-.3-1.48-.56-2.05-.72l-1.32-.41-.45-.16a2.45,2.45,0,0,1,.47.1l1.33.37c.58.14,1.27.38,2.08.67l1.28.46,1.42.59c1,.39,2,.94,3.17,1.49.56.29,1.12.63,1.71,1,.29.17.6.33.89.51l.89.57a47.17,47.17,0,0,1,7.27,5.69,46.55,46.55,0,0,1,9.83,13.49c.43,1,.87,1.85,1.17,2.65a14.6,14.6,0,0,1,.66,2.08,8.21,8.21,0,0,1,.21,1.37c0,.16,0,.28,0,.36S428.56,337.19,428.55,337.19Z" style="fill: rgb(38, 50, 56); transform-origin: 412.37px 321.45px 0px;" id="elkragpp22clk" class="animable"></path><path d="M394.91,303.88l.45-.4s15,11.31,15.21,30.81-8.22,29.73-10,32-8,8.31-8,8.31l3.24-12.79s8.19-8.3,8.91-13c0,0-9.41,11.44-15.62,13,0,0,3.22-8.66,3.31-10.38,0,0,6-4.16,7.8-9.69l-6.11,4.73L397.21,335l3.23-4-2.41-.8S400.53,319.87,394.91,303.88Z" style="fill: #9E6E69; transform-origin: 399.837px 339.04px 0px;" id="elmifqndt1jub" class="animable"></path><path d="M403.39,347.72s.08-.15.22-.43a10.8,10.8,0,0,0,.55-1.26,15.55,15.55,0,0,0,.57-2.09c.19-.83.31-1.79.49-2.84a47.86,47.86,0,0,0-3.37-25.35c-.13-.33-.27-.65-.4-1s-.3-.61-.44-.92c-.3-.6-.56-1.19-.86-1.74-.62-1.1-1.15-2.14-1.74-3l-.82-1.29-.78-1.11c-.49-.7-.91-1.29-1.3-1.75l-.85-1.09a2.61,2.61,0,0,1-.28-.39s.12.12.32.36l.9,1.05c.4.45.84,1,1.34,1.73.25.34.52.7.8,1.1s.54.83.84,1.28c.6.89,1.15,1.93,1.78,3,.3.55.57,1.15.87,1.75.15.3.31.6.45.92s.27.64.41,1a45.78,45.78,0,0,1,2.8,8.79,46.8,46.8,0,0,1,.53,16.68c-.2,1.06-.33,2-.53,2.85a16.46,16.46,0,0,1-.63,2.1,8.77,8.77,0,0,1-.6,1.25c-.08.14-.15.24-.19.3S403.4,347.72,403.39,347.72Z" style="fill: rgb(38, 50, 56); transform-origin: 400.154px 325.59px 0px;" id="elwt4japumvop" class="animable"></path><path d="M397.62,305.15l.13-.57s-17.19-7.5-34.31,1.85-21.88,21.74-23,24.41-3.32,11-3.32,11l9.56-9.1s3.21-11.2,6.93-14.11c0,0-5.36,13.8-3.64,20,0,0,6-7.06,7.42-8,0,0,.69-7.27,4.62-11.55l-1.13,7.65,8.55-8.35,1.88-4.76,1.87,1.71S380.94,308.11,397.62,305.15Z" style="fill: #9E6E69; transform-origin: 367.435px 321.787px 0px;" id="el6mj1e9x06v2" class="animable"></path><path d="M355.26,319.27a4.42,4.42,0,0,0,.26-.4,11.77,11.77,0,0,1,.83-1.09,15,15,0,0,1,1.55-1.53c.63-.57,1.41-1.15,2.23-1.82a48.1,48.1,0,0,1,14.76-7.62,47.42,47.42,0,0,1,9-1.88l1-.12,1-.07c.67,0,1.31-.09,1.94-.11,1.26,0,2.43-.05,3.5,0l1.52.07,1.35.14c.85.09,1.58.16,2.17.27l1.36.21a2.72,2.72,0,0,0,.48.06,2.71,2.71,0,0,0-.47-.11l-1.36-.27c-.58-.12-1.31-.22-2.16-.32l-1.35-.16-1.53-.09c-1.07-.1-2.25-.06-3.51-.07-.63,0-1.29.06-2,.09-.33,0-.68,0-1,.07l-1,.11a46.93,46.93,0,0,0-23.84,9.6c-.82.69-1.6,1.28-2.22,1.86a14.38,14.38,0,0,0-1.52,1.58,9,9,0,0,0-.8,1.13c-.08.14-.13.24-.17.32S355.25,319.27,355.26,319.27Z" style="fill: rgb(38, 50, 56); transform-origin: 376.731px 311.815px 0px;" id="elbqmd2xi4upd" class="animable"></path><path d="M347.22,279.22a1.9,1.9,0,0,1,.52-.16c.35-.08.85-.24,1.53-.36a34.85,34.85,0,0,1,5.9-.65,41.3,41.3,0,0,1,9.07.73,46.12,46.12,0,0,1,10.94,3.54,48.24,48.24,0,0,1,9.83,6.24,46,46,0,0,1,6.63,6.67,39.27,39.27,0,0,1,3.53,5.1c.38.61.61,1.12.79,1.45a3,3,0,0,1,.25.52,2.76,2.76,0,0,1-.32-.49c-.21-.33-.46-.82-.86-1.43a45.45,45.45,0,0,0-3.63-5,46.81,46.81,0,0,0-6.63-6.55,47.83,47.83,0,0,0-9.74-6.15,46.42,46.42,0,0,0-10.81-3.53,42.42,42.42,0,0,0-9-.81,39.26,39.26,0,0,0-5.9.52c-.69.09-1.2.22-1.56.28Z" style="fill: rgb(38, 50, 56); transform-origin: 371.715px 290.166px 0px;" id="elp6hr1m22rga" class="animable"></path><path d="M369.32,457s-.21.17-.64.38a12,12,0,0,1-1.89.73,17.34,17.34,0,0,1-6.64.67,17.52,17.52,0,0,1-6.41-1.85,11.27,11.27,0,0,1-1.72-1.05c-.39-.29-.59-.46-.57-.49s.92.52,2.45,1.21a19.56,19.56,0,0,0,12.79,1.16C368.32,457.36,369.28,456.93,369.32,457Z" style="fill: rgb(111, 68, 57); transform-origin: 360.384px 457.122px 0px;" id="el95kcnreowzs" class="animable"></path><path d="M369.56,426.94a7.14,7.14,0,0,1-2.19.81,18.13,18.13,0,0,1-11.15-.76,7.08,7.08,0,0,1-2.06-1.11,28.74,28.74,0,0,0,7.61,1.85C366.12,428.06,369.52,426.76,369.56,426.94Z" style="fill: rgb(111, 68, 57); transform-origin: 361.86px 427.086px 0px;" id="elk319ksro4b" class="animable"></path><path d="M371,398.43a5.83,5.83,0,0,1-2,.44,16.09,16.09,0,0,1-9.43-1.86,5.25,5.25,0,0,1-1.64-1.16,29.43,29.43,0,0,0,6.31,2.3A30.18,30.18,0,0,0,371,398.43Z" style="fill: rgb(111, 68, 57); transform-origin: 364.465px 397.407px 0px;" id="elolgkllxkd1k" class="animable"></path><path d="M375.47,367.56a3.86,3.86,0,0,1-1.6.47,10.32,10.32,0,0,1-4-.22,10.47,10.47,0,0,1-3.64-1.72c-.83-.63-1.22-1.14-1.18-1.18A17.6,17.6,0,0,0,370,367.3,18,18,0,0,0,375.47,367.56Z" style="fill: rgb(111, 68, 57); transform-origin: 370.259px 366.521px 0px;" id="eln5uujk0u7w" class="animable"></path><path d="M383.25,338.67c0,.06-.49.17-1.31.09a7.06,7.06,0,0,1-3-1.05,7.17,7.17,0,0,1-2.26-2.24,2.47,2.47,0,0,1-.5-1.22,9.62,9.62,0,0,0,7.08,4.42Z" style="fill: rgb(111, 68, 57); transform-origin: 379.72px 336.519px 0px;" id="elfzidn3n5vkm" class="animable"></path><path d="M98.63,315.17a5.09,5.09,0,0,0-.57-.57c-4.37-4-20.75-13.82-20.75-13.82l1.32-3.09-7.52,3.61L56,299.37l7.29-7.44c-2.12-.3-14.5,7-14.5,7l-12,3,9-11c-7.59,1.13-18.29,12.93-18.29,12.93l-15.87,3c5-7.3,25.63-24.77,50.39-22.7S98.63,315.17,98.63,315.17Z" style="fill: #9E6E69; transform-origin: 55.13px 299.58px 0px;" id="elfpk5hn88uo" class="animable"></path><g id="elz8elspqm3yc"><g style="opacity: 0.3; transform-origin: 55.13px 299.58px 0px;" class="animable" id="elnugpo678w9q"><path d="M98.63,315.17a5.09,5.09,0,0,0-.57-.57c-4.37-4-20.75-13.82-20.75-13.82l1.32-3.09-7.52,3.61L56,299.37l7.29-7.44c-2.12-.3-14.5,7-14.5,7l-12,3,9-11c-7.59,1.13-18.29,12.93-18.29,12.93l-15.87,3c5-7.3,25.63-24.77,50.39-22.7S98.63,315.17,98.63,315.17Z" id="eljfjvfv3cj9k" style="transform-origin: 55.13px 299.58px 0px;" class="animable"></path></g></g><path d="M100.55,308.81c.17-5.32,4.81-18.36,4.81-18.36l-3.55-1,5.87-2.35,7.44-11-6.32-1.23c1.07-1.55,10.74-3.65,10.74-3.65L127,265l-7.89-.62c5.1-4.22,14.44-4.21,14.44-4.21l11-8.48c-7.21-1.27-31-1.73-44.26,15.61s-2,42.27-2,42.27" style="fill: #9E6E69; transform-origin: 119.19px 280.36px 0px;" id="elrf8jeztuqxq" class="animable"></path><path d="M97.58,304.65a1.6,1.6,0,0,0,0-.48c0-.35-.07-.8-.13-1.36,0-.3-.06-.62-.1-1s0-.75-.07-1.17c0-.84-.12-1.8-.09-2.86,0-.53,0-1.08,0-1.66s.06-1.18.09-1.8c0-1.25.21-2.57.37-4A53.84,53.84,0,0,1,103,273.07c.66-1.23,1.26-2.42,1.94-3.46.33-.53.62-1.06,1-1.54l.94-1.37c.57-.89,1.19-1.62,1.7-2.3l.71-.93.65-.74.88-1.05a2.33,2.33,0,0,0,.28-.38,2.9,2.9,0,0,0-.34.33l-.94,1-.67.73c-.23.27-.47.58-.74.91-.53.66-1.16,1.39-1.75,2.28l-1,1.36c-.33.48-.64,1-1,1.53-.69,1.05-1.31,2.24-2,3.47a52.14,52.14,0,0,0-5.42,17.43c-.15,1.4-.31,2.73-.34,4,0,.63-.07,1.23-.07,1.81s0,1.14,0,1.67c0,1.07.1,2,.15,2.87,0,.42.06.82.1,1.18s.09.68.13,1c.09.56.15,1,.21,1.35A3.06,3.06,0,0,0,97.58,304.65Z" style="fill: rgb(38, 50, 56); transform-origin: 103.965px 282.975px 0px;" id="els8ol7vyyyok" class="animable"></path><g id="elqtg849mhs1d"><g style="opacity: 0.3; transform-origin: 119.19px 280.36px 0px;" class="animable" id="elza6crxhqswf"><path d="M100.55,308.81c.17-5.32,4.81-18.36,4.81-18.36l-3.55-1,5.87-2.35,7.44-11-6.32-1.23c1.07-1.55,10.74-3.65,10.74-3.65L127,265l-7.89-.62c5.1-4.22,14.44-4.21,14.44-4.21l11-8.48c-7.21-1.27-31-1.73-44.26,15.61s-2,42.27-2,42.27" id="elg1gus4o0fmt" style="transform-origin: 119.19px 280.36px 0px;" class="animable"></path></g></g><path d="M145.26,471.7s-.66-96.95-35.21-150.39l-8.4-12.75-6,4.46s18.15,16.62,27.66,74.45c5.44,33.08,2.43,84.23,2.43,84.23Z" style="fill: rgb(174, 116, 97); transform-origin: 120.455px 390.13px 0px;" id="el7j3ttcz1s1w" class="animable"></path><path d="M99.12,310.46q-.18-.25-.39-.6c-2.76-4.55-8.68-20.57-8.68-20.57l-2.74.54,4-5.79.43-13.4-7.17,4.86c0-1.89,7.81-11.15,7.81-11.15l4.1-9.74-6.9,3.76c2-6.33,9.76-11.39,9.76-11.39l3.42-12.31C96,237.55,79.91,251.19,78.27,273S99.12,310.46,99.12,310.46Z" style="fill: #9E6E69; transform-origin: 90.4722px 272.565px 0px;" id="el6q1f1c7ttbv" class="animable"></path><path d="M98.58,309.38l-.16-.16c-.12-.12-.28-.26-.49-.44-.42-.4-1.09-.93-1.87-1.7a49.52,49.52,0,0,1-6.08-7,47.39,47.39,0,0,1-6.28-12.18A45.86,45.86,0,0,1,81.82,280a42.37,42.37,0,0,1-.23-8.68,43.94,43.94,0,0,1,4.83-16,54.29,54.29,0,0,1,3.81-6.29c1.3-1.9,2.64-3.58,3.88-5.09,2.52-3,4.73-5.3,6.28-6.86.76-.79,1.38-1.37,1.78-1.79l.46-.47c.11-.1.16-.16.15-.17l-.17.14-.49.45c-.42.39-1.06,1-1.84,1.74-1.58,1.52-3.82,3.79-6.37,6.78-1.26,1.51-2.63,3.19-3.94,5.09a51.79,51.79,0,0,0-3.86,6.31,43.62,43.62,0,0,0-4.9,16.13,42.49,42.49,0,0,0,.24,8.77A44.86,44.86,0,0,0,83.36,288a47.1,47.1,0,0,0,6.4,12.22,46.48,46.48,0,0,0,6.2,6.94c.8.76,1.49,1.27,1.92,1.65l.52.41A1.48,1.48,0,0,0,98.58,309.38Z" style="fill: rgb(38, 50, 56); transform-origin: 91.9342px 272.015px 0px;" id="eloytmtdw3cag" class="animable"></path><path d="M99,310.82l.24-.72s-20.71-12.18-43.93-2.93S24.1,331.48,22.21,334.68s-5.91,13.54-5.91,13.54l13.55-10.1s5.82-13.76,11-16.89c0,0-9,16.74-7.7,24.84,0,0,8.68-8.06,10.67-9,0,0,2-9.15,7.65-14l-2.61,9.55L61,323.34l3.13-5.77L66.25,320S77.28,312,99,310.82Z" style="fill: #9E6E69; transform-origin: 57.77px 325.961px 0px;" id="elnyiip7gxxto" class="animable"></path><path d="M96.57,310.28c.13-.18,1.36-.1,1.56-.31,3.87-4.14,17.2-9.33,17.2-9.33l-1.4-2.41,7.22,1.85,14-4.11-7.2-5.13c2-.6,13.91,3.61,13.91,3.61l13.18,1.75-9-7.9c3.63,1,15.93,6.86,15.93,6.86l15-.06c-5-5.4-25.61-21.67-48.64-15.88S96.57,310.28,96.57,310.28Z" style="fill: #9E6E69; transform-origin: 136.77px 294.136px 0px;" id="elkpff2n8fz" class="animable"></path><path d="M42.89,322.25a4.27,4.27,0,0,0,.4-.46,13.29,13.29,0,0,1,1.23-1.27,21.1,21.1,0,0,1,2.2-1.71c.89-.62,2-1.23,3.13-2a61.26,61.26,0,0,1,19.94-7.42,60.37,60.37,0,0,1,11.72-1h1.34c.44,0,.87.05,1.3.07.86.06,1.69.08,2.49.16,1.6.2,3.1.31,4.44.58l1.93.33,1.7.39c1.06.24,2,.45,2.71.68l1.7.48a4.69,4.69,0,0,0,.6.14l-.58-.21-1.68-.55c-.73-.25-1.64-.48-2.71-.74-.53-.13-1.09-.28-1.7-.41L91.12,309c-1.34-.29-2.85-.42-4.45-.63-.8-.08-1.64-.12-2.5-.18l-1.31-.08H81.51a60.16,60.16,0,0,0-31.8,8.55c-1.15.74-2.23,1.37-3.11,2a18.92,18.92,0,0,0-2.18,1.77,10.36,10.36,0,0,0-1.18,1.32,4.28,4.28,0,0,0-.27.38Z" style="fill: rgb(38, 50, 56); transform-origin: 71.305px 315.177px 0px;" id="elhsxhzryle75" class="animable"></path><path d="M98.63,310.85l-.14-.57s-18.74.9-29.94,16.87-10,29.2-9.82,32.1,1.93,11.36,1.93,11.36l4.53-12.39s-2.09-11.46,0-15.72c0,0,1.32,14.75,5.59,19.51,0,0,2.22-9,3.12-10.44,0,0-2.61-6.82-1-12.4l2.38,7.35,4-11.26-.43-5.11,2.45.7S85,320.9,98.63,310.85Z" style="fill: #9E6E69; transform-origin: 78.6179px 340.445px 0px;" id="ell7mo1gwgxk" class="animable"></path><g id="el8635uswg7nj"><g style="opacity: 0.3; transform-origin: 78.6179px 340.445px 0px;" class="animable" id="el3fhe3zxu7bq"><path d="M98.63,310.85l-.14-.57s-18.74.9-29.94,16.87-10,29.2-9.82,32.1,1.93,11.36,1.93,11.36l4.53-12.39s-2.09-11.46,0-15.72c0,0,1.32,14.75,5.59,19.51,0,0,2.22-9,3.12-10.44,0,0-2.61-6.82-1-12.4l2.38,7.35,4-11.26-.43-5.11,2.45.7S85,320.9,98.63,310.85Z" id="elyxiz43qtm8" style="transform-origin: 78.6179px 340.445px 0px;" class="animable"></path></g></g><path d="M66.92,342.29s0-.16.06-.48a10.39,10.39,0,0,1,.26-1.34,16.78,16.78,0,0,1,.7-2.06c.31-.79.76-1.65,1.2-2.62A48.12,48.12,0,0,1,79,322.42a47.32,47.32,0,0,1,7.22-5.67l.87-.57.88-.51c.59-.33,1.14-.67,1.7-1,1.13-.56,2.15-1.12,3.15-1.52l1.4-.61,1.27-.48c.79-.29,1.48-.55,2.06-.71l1.31-.42a2.66,2.66,0,0,0,.46-.16,2.81,2.81,0,0,0-.47.11l-1.33.36c-.59.15-1.28.39-2.08.68-.41.14-.84.28-1.29.45l-1.41.6c-1,.38-2,.94-3.18,1.49-.56.29-1.12.62-1.71.95L87,316l-.88.57a45.56,45.56,0,0,0-7.27,5.68A46.87,46.87,0,0,0,69,335.7c-.43,1-.86,1.85-1.16,2.65a14.87,14.87,0,0,0-.67,2.09,9.23,9.23,0,0,0-.21,1.37c0,.16,0,.28,0,.36S66.91,342.29,66.92,342.29Z" style="fill: rgb(38, 50, 56); transform-origin: 83.1193px 326.53px 0px;" id="elwmhbwule0ms" class="animable"></path><path d="M100.56,309l-.44-.39s-15,11.31-15.22,30.81,8.22,29.73,10,32.05,8,8.3,8,8.3L99.63,367s-8.19-8.29-8.9-13c0,0,9.4,11.45,15.61,13,0,0-3.22-8.67-3.3-10.38,0,0-6-4.17-7.8-9.69l6.11,4.73-3.08-11.54-3.24-4,2.42-.8S95,325,100.56,309Z" style="fill: #9E6E69; transform-origin: 95.6179px 344.19px 0px;" id="elqj7p7v7mqdb" class="animable"></path><path d="M92.08,352.82a3.06,3.06,0,0,0-.22-.43,11.1,11.1,0,0,1-.54-1.26,15.6,15.6,0,0,1-.58-2.1c-.19-.82-.31-1.79-.48-2.84a47.71,47.71,0,0,1,.6-16.59,46.81,46.81,0,0,1,2.76-8.75l.4-1c.14-.31.3-.62.44-.92.3-.6.57-1.19.86-1.75.62-1.09,1.15-2.13,1.75-3q.42-.69.81-1.29l.78-1.12c.49-.69.91-1.29,1.3-1.75l.85-1.08a3.5,3.5,0,0,0,.29-.39,3.09,3.09,0,0,0-.33.35l-.9,1.06a21.19,21.19,0,0,0-1.33,1.72l-.81,1.1-.83,1.29c-.61.89-1.16,1.93-1.79,3-.3.56-.57,1.15-.87,1.75-.15.31-.31.61-.45.93l-.41,1a47,47,0,0,0-3.32,25.48c.19,1.06.32,2,.53,2.85a15.1,15.1,0,0,0,.62,2.1,9.35,9.35,0,0,0,.6,1.25l.2.3A.51.51,0,0,0,92.08,352.82Z" style="fill: rgb(38, 50, 56); transform-origin: 95.3255px 330.685px 0px;" id="el0z812ox5snec" class="animable"></path><path d="M97.85,310.25l-.13-.58s17.2-7.49,34.32,1.85,21.87,21.75,23,24.41S158.39,347,158.39,347l-9.56-9.1s-3.21-11.21-6.92-14.12c0,0,5.36,13.81,3.63,20,0,0-6-7.05-7.42-8,0,0-.69-7.28-4.62-11.55l1.13,7.64-8.54-8.34-1.88-4.76-1.88,1.71S114.54,313.2,97.85,310.25Z" style="fill: #9E6E69; transform-origin: 128.055px 326.914px 0px;" id="elkvenpe3kmkq" class="animable"></path><path d="M140.22,324.37a4.69,4.69,0,0,1-.27-.4,9.22,9.22,0,0,0-.83-1.1,17.13,17.13,0,0,0-1.54-1.53c-.63-.57-1.41-1.14-2.24-1.81A47.9,47.9,0,0,0,111.6,310l-1-.12c-.34,0-.68-.05-1-.07-.66,0-1.31-.1-1.94-.11-1.26,0-2.43-.05-3.49,0l-1.53.08-1.35.14c-.85.08-1.57.16-2.16.27l-1.36.21-.48.06a2.4,2.4,0,0,1,.46-.11l1.36-.27c.59-.13,1.31-.22,2.16-.32l1.36-.16,1.53-.1c1.07-.09,2.24-.05,3.51-.07.63,0,1.28.07,2,.1l1,.06,1,.12a47,47,0,0,1,23.83,9.6c.83.68,1.6,1.27,2.22,1.86a15.34,15.34,0,0,1,1.52,1.57,8,8,0,0,1,.8,1.14c.08.13.13.24.17.31Z" style="fill: rgb(38, 50, 56); transform-origin: 118.755px 316.9px 0px;" id="eli27cmnlrm0m" class="animable"></path><path d="M148.26,284.32a2.32,2.32,0,0,0-.52-.16c-.35-.08-.86-.24-1.54-.36a34.85,34.85,0,0,0-5.9-.65,41.35,41.35,0,0,0-9.07.73,45.67,45.67,0,0,0-10.94,3.54,48.52,48.52,0,0,0-9.83,6.24,46.51,46.51,0,0,0-6.63,6.67,40.34,40.34,0,0,0-3.53,5.09c-.38.62-.61,1.12-.79,1.46a2.52,2.52,0,0,0-.24.51,3.21,3.21,0,0,0,.32-.49c.2-.32.46-.81.86-1.42a43.82,43.82,0,0,1,3.62-5,47.37,47.37,0,0,1,6.63-6.56,48.55,48.55,0,0,1,9.74-6.15,46.9,46.9,0,0,1,10.81-3.53,43.12,43.12,0,0,1,9-.81,38.86,38.86,0,0,1,5.89.53c.69.09,1.2.22,1.56.28A4.19,4.19,0,0,0,148.26,284.32Z" style="fill: rgb(38, 50, 56); transform-origin: 123.765px 295.261px 0px;" id="el5e37n71bldb" class="animable"></path><path d="M126.15,462.11c0-.08,1,.34,2.63.76a19.56,19.56,0,0,0,12.79-1.16c1.53-.7,2.4-1.29,2.45-1.21s-.18.2-.56.48a11.9,11.9,0,0,1-1.73,1.06,17.6,17.6,0,0,1-13,1.18,12,12,0,0,1-1.89-.73A2.07,2.07,0,0,1,126.15,462.11Z" style="fill: rgb(111, 68, 57); transform-origin: 135.088px 462.222px 0px;" id="elotesigeuifj" class="animable"></path><path d="M125.92,432a28.36,28.36,0,0,0,7.78.8,29.07,29.07,0,0,0,7.61-1.85,7.19,7.19,0,0,1-2.06,1.11,18.39,18.39,0,0,1-5.51,1.26,18,18,0,0,1-5.63-.5A6.7,6.7,0,0,1,125.92,432Z" style="fill: rgb(111, 68, 57); transform-origin: 133.615px 432.157px 0px;" id="el7uumbgn8azl" class="animable"></path><path d="M124.52,403.52a29.38,29.38,0,0,0,6.71-.28,30,30,0,0,0,6.32-2.29,5.8,5.8,0,0,1-1.65,1.16,16.3,16.3,0,0,1-4.57,1.64,16,16,0,0,1-4.85.22A5.49,5.49,0,0,1,124.52,403.52Z" style="fill: rgb(111, 68, 57); transform-origin: 131.035px 402.506px 0px;" id="elymjgh264gwo" class="animable"></path><path d="M120,372.65a17.46,17.46,0,0,0,5.49-.25,17.92,17.92,0,0,0,4.94-2.39s-.35.55-1.18,1.17a10.32,10.32,0,0,1-3.63,1.73,10.57,10.57,0,0,1-4,.22A3.74,3.74,0,0,1,120,372.65Z" style="fill: rgb(111, 68, 57); transform-origin: 125.215px 371.619px 0px;" id="el3zj6d98pb4m" class="animable"></path><path d="M112.22,343.77a13.1,13.1,0,0,0,4-1.4,12.86,12.86,0,0,0,3-3c.06,0-.07.52-.5,1.22a7.06,7.06,0,0,1-2.26,2.24,7.3,7.3,0,0,1-3,1.05A2.51,2.51,0,0,1,112.22,343.77Z" style="fill: rgb(111, 68, 57); transform-origin: 115.727px 341.641px 0px;" id="elhfrvwg00r2" class="animable"></path><path d="M442,302.81a12.25,12.25,0,0,1-1.7-.59l-.89-.34-1.09-.34c-.77-.25-1.65-.55-2.65-.78l-1.56-.41-1.71-.34c-1.18-.27-2.47-.41-3.8-.62A57.61,57.61,0,0,0,411,300c-1.32.29-2.59.52-3.75.86l-1.69.45-1.53.51c-1,.29-1.84.65-2.6.94l-1.06.41-.87.4a10.16,10.16,0,0,1-1.66.68,14.21,14.21,0,0,1,1.57-.87l.86-.43,1.05-.46c.75-.32,1.61-.7,2.59-1l1.54-.54,1.69-.49c1.16-.36,2.44-.6,3.77-.91a58.55,58.55,0,0,1,8.84-1,59.92,59.92,0,0,1,8.89.43c1.35.23,2.64.38,3.82.67l1.72.38,1.56.44c1,.26,1.88.59,2.66.86l1.08.39.88.38A11.53,11.53,0,0,1,442,302.81Z" style="fill: rgb(38, 50, 56); transform-origin: 419.92px 301.39px 0px;" id="eloq7wrdtzjmj" class="animable"></path><path d="M431.83,287.17a50.89,50.89,0,0,0-5.44.76,48.2,48.2,0,0,0-12.29,4.87A75.46,75.46,0,0,0,403,300.12c-.66.54-1.24,1-1.76,1.47L400,302.76a7.59,7.59,0,0,1-1.08,1,9.39,9.39,0,0,1,.94-1.15l1.23-1.24c.5-.46,1.07-1,1.72-1.54a65.43,65.43,0,0,1,11-7.5,45.07,45.07,0,0,1,12.46-4.77,18.9,18.9,0,0,1,2.29-.35l.94-.1h.8A9.16,9.16,0,0,1,431.83,287.17Z" style="fill: rgb(38, 50, 56); transform-origin: 415.375px 295.43px 0px;" id="elmwk3e94lf07" class="animable"></path></g><g id="freepik--Plants--inject-2" style="transform-origin: 249.115px 449.29px 0px;" class="animable"><path d="M376.59,472.08a120.39,120.39,0,0,1-22.43-20.46c5.1.94,9.64,3.94,13.28,7.63a76.58,76.58,0,0,1,9.29,12.44c-2.34-6.83-4.69-13.72-5.6-20.89s-.29-14.71,3.06-21.1c3.08,13.77,3.11,28,3.11,42.13a40.61,40.61,0,0,1,18.19-32.26C393.6,451.68,387.9,464,378,471.23c8.18-7.8,17.3-14.41,28.29-17.05-7.84,8.47-19.47,13.75-29.71,17.9" style="fill: rgb(38, 50, 56); transform-origin: 380.225px 450.89px 0px;" id="elfv84xpk6l19" class="animable"></path><path d="M200,472a131.69,131.69,0,0,1-17.56-28.34c5.1,2.52,9,7.05,11.73,12.05s4.43,10.48,6.1,15.92c-.43-7.92-.85-15.9.33-23.75s4.11-15.63,9.57-21.38C209.27,442,205,457,200.81,472a44.62,44.62,0,0,1,28.88-28.65c-5.62,12.24-15.33,23.52-28,28.22,11-5.79,22.61-10,35-9.53-10.82,6.59-24.7,8.69-36.76,10" style="fill: rgb(69, 90, 100); transform-origin: 209.565px 449.27px 0px;" id="elcqgx097okbw" class="animable"></path><path d="M314.7,471.69a75.34,75.34,0,0,1-15.58-10.93,16.11,16.11,0,0,1,8.87,3.69,47.57,47.57,0,0,1,6.76,7,66.93,66.93,0,0,1-5.14-12.54,22.41,22.41,0,0,1,.22-13.37c3,8.32,4.17,17.18,5.29,26A25.49,25.49,0,0,1,323.86,450c-.21,7.68-2.78,15.78-8.35,21.08,4.47-5.5,9.62-10.34,16.24-12.86-4.2,5.9-11,10.11-17.05,13.5" style="fill: rgb(69, 90, 100); transform-origin: 315.435px 458.63px 0px;" id="elnq2prr62wn" class="animable"></path><path d="M126.49,472.05a100.83,100.83,0,0,0,13.4-21.62,21.49,21.49,0,0,0-9,9.19,64.29,64.29,0,0,0-4.64,12.14c.32-6,.64-12.13-.26-18.11s-3.13-11.92-7.3-16.31c.67,11.81,3.9,23.3,7.13,34.67a34,34,0,0,0-22-21.85c4.28,9.34,11.69,17.94,21.32,21.52-8.37-4.41-17.24-7.65-26.7-7.27,8.26,5,18.84,6.63,28,7.64" style="fill: rgb(69, 90, 100); transform-origin: 119.165px 454.695px 0px;" id="elzzbgidlxm5l" class="animable"></path><path d="M44.78,471.69a68.79,68.79,0,0,0,13.41-11.13,14.68,14.68,0,0,0-7.81,4,43.53,43.53,0,0,0-5.66,6.88,61.82,61.82,0,0,0,3.77-11.82,20.6,20.6,0,0,0-1.19-12.18c-2.14,7.81-2.55,15.92-2.92,24a23.22,23.22,0,0,0-9.55-18.92c.75,7,3.69,14.19,9.17,18.61-4.48-4.69-9.54-8.72-15.77-10.53,4.18,4.95,10.49,8.43,16.15,11.06h.4" style="fill: rgb(69, 90, 100); transform-origin: 43.21px 459.565px 0px;" id="elmftb3qdwsol" class="animable"></path><path d="M456.58,471.69A68.73,68.73,0,0,0,470,460.56a14.68,14.68,0,0,0-7.81,4,43.53,43.53,0,0,0-5.66,6.88,61.82,61.82,0,0,0,3.77-11.82,20.6,20.6,0,0,0-1.19-12.18c-2.14,7.81-2.54,15.92-2.92,24a23.16,23.16,0,0,0-9.55-18.92c.75,7,3.69,14.19,9.17,18.61-4.48-4.69-9.53-8.72-15.76-10.53,4.17,4.95,10.48,8.43,16.14,11.06h.41" style="fill: rgb(69, 90, 100); transform-origin: 455.025px 459.565px 0px;" id="el3p3dgl6hfk6" class="animable"></path></g><defs>     <filter id="active" height="200%">         <feMorphology in="SourceAlpha" result="DILATED" operator="dilate" radius="2"></feMorphology>                <feFlood flood-color="#32DFEC" flood-opacity="1" result="PINK"></feFlood>        <feComposite in="PINK" in2="DILATED" operator="in" result="OUTLINE"></feComposite>        <feMerge>            <feMergeNode in="OUTLINE"></feMergeNode>            <feMergeNode in="SourceGraphic"></feMergeNode>        </feMerge>    </filter>    <filter id="hover" height="200%">        <feMorphology in="SourceAlpha" result="DILATED" operator="dilate" radius="2"></feMorphology>                <feFlood flood-color="#ff0000" flood-opacity="0.5" result="PINK"></feFlood>        <feComposite in="PINK" in2="DILATED" operator="in" result="OUTLINE"></feComposite>        <feMerge>            <feMergeNode in="OUTLINE"></feMergeNode>            <feMergeNode in="SourceGraphic"></feMergeNode>        </feMerge>            <feColorMatrix type="matrix" values="0   0   0   0   0                0   1   0   0   0                0   0   0   0   0                0   0   0   1   0 "></feColorMatrix>    </filter></defs></svg>